<?xml version="1.0" encoding="utf-8"?>
<!-- Generator: Adobe Illustrator 25.0.0, SVG Export Plug-In . SVG Version: 6.00 Build 0)  -->
<svg version="1.1" id="Layer_1" xmlns="http://www.w3.org/2000/svg" xmlns:xlink="http://www.w3.org/1999/xlink" x="0px" y="0px"
	 viewBox="0 0 288 288" style="enable-background:new 0 0 288 288;" xml:space="preserve">
<style type="text/css">
	.st0{fill:url(#SVGID_1_);}
	.st1{fill:#010101;}
</style>
<g>
	
		<radialGradient id="SVGID_1_" cx="532.5641" cy="152.7492" r="112.9998" gradientTransform="matrix(0.614 0 0 -0.7217 -177.798 249.1303)" gradientUnits="userSpaceOnUse">
		<stop  offset="7.470000e-02" style="stop-color:#FCEF44"/>
		<stop  offset="0.1349" style="stop-color:#FEE027"/>
		<stop  offset="0.2065" style="stop-color:#FFD217"/>
		<stop  offset="0.2804" style="stop-color:#FFCA12"/>
		<stop  offset="0.359" style="stop-color:#FDC713"/>
		<stop  offset="0.6651" style="stop-color:#F29140"/>
		<stop  offset="0.9548" style="stop-color:#ED683C"/>
		<stop  offset="1" style="stop-color:#E93F3A"/>
	</radialGradient>
	<rect x="76.6" y="61.3" class="st0" width="145.2" height="155.2"/>
	<g>
		<g>
			<g>
				<g>
					<path class="st1" d="M222.5,215.7c0,1,0.1,0.6,0.1,0.8C222.6,214.9,222.5,215.8,222.5,215.7z"/>
					<polygon class="st1" points="222.2,199.9 222.3,200.1 222.1,197.8 					"/>
					<path class="st1" d="M222.2,185c-0.2,1.4,0,5.4,0,8l0,0.4l0.2,1.2C222.3,191.4,222.2,187.3,222.2,185z"/>
					<path class="st1" d="M222.7,177.1c-0.1,0.5-0.1-1.7,0,1.8c0-0.2,0-0.2,0-0.3C222.7,178.3,222.7,177.8,222.7,177.1z"/>
					<path class="st1" d="M222.7,178.6C222.7,180.2,222.7,177.6,222.7,178.6L222.7,178.6z"/>
					<path class="st1" d="M222.6,171.4l0.1,2.1c0-0.4,0.1-2.3,0.1-1.6C222.8,169.7,222.7,170.2,222.6,171.4z"/>
					<path class="st1" d="M222.5,169.4l0,1.1C222.5,170.3,222.5,170,222.5,169.4z"/>
					<path class="st1" d="M222.6,172.8l-0.1-2.3c0,0.3-0.1,0.3,0,1C222.5,171.3,222.5,171.8,222.6,172.8z"/>
					<path class="st1" d="M222.5,174c0,1.2-0.1,2.6-0.1,0.6C222.4,178.6,222.6,178,222.5,174z"/>
					<path class="st1" d="M222,184.2l-0.1,1.5l0.1,1.3C222,186.5,222.1,184.2,222,184.2z"/>
					<path class="st1" d="M222.7,158.5c0-0.1-0.1,0.7-0.2,0.8l0.1,1.5C222.6,160.1,222.7,158.6,222.7,158.5z"/>
					<path class="st1" d="M222.6,159.4l-0.1-2.3C222.5,159.1,222.5,159.5,222.6,159.4z"/>
					<polygon class="st1" points="222.2,169.1 222.4,172.8 222.2,168.3 					"/>
					<polygon class="st1" points="222.7,149.8 222.8,151.1 222.7,148.8 					"/>
					<path class="st1" d="M222.7,144.1c0.1,1,0.1-1.3,0.2-0.3c0-1.6-0.1-2.9-0.2-4.1C222.8,140.9,222.8,142.3,222.7,144.1z"/>
					<path class="st1" d="M222.7,137.6c0,0.6,0.1,1.3,0.1,2C222.7,139,222.7,138.3,222.7,137.6z"/>
					<path class="st1" d="M222.5,153.2c0-0.2,0.1-0.5,0.1-1.8l-0.1,0.9C222.5,152.6,222.5,152.9,222.5,153.2z"/>
					<path class="st1" d="M222.5,152.4L222.5,152.4c0-1,0-1.7,0-2C222.5,150.6,222.5,151.2,222.5,152.4z"/>
					<path class="st1" d="M222.5,153.5c0-0.1,0-0.1,0-0.2C222.5,153.3,222.5,153.4,222.5,153.5z"/>
					<path class="st1" d="M222.4,163.1c-0.1-1.3-0.1-4.1-0.3-1.4C222.2,162.6,222.2,161.1,222.4,163.1z"/>
					<path class="st1" d="M222.3,154.6l0,2.4c0,0,0.1-0.5,0.1,0.2L222.3,154.6z"/>
					<polygon class="st1" points="222.3,153.4 222.3,154.6 222.4,153.7 					"/>
					<path class="st1" d="M222.6,141.8c-0.1-1-0.1-2.2-0.1-3.5c0,1.4,0,2.8,0,4.2C222.5,142.7,222.6,143.3,222.6,141.8z"/>
					<path class="st1" d="M222.5,146.9c0-0.1,0-0.2,0-0.2C222.5,146.8,222.5,147,222.5,146.9z"/>
					<path class="st1" d="M222.5,125.6c0,0.1,0,0.1,0,0.2c0,0,0,0,0,0L222.5,125.6z"/>
					<path class="st1" d="M222.4,142.7c0,1,0,1.7,0,2.3c0-0.8,0-1.6,0-2.5C222.4,142.4,222.4,142.4,222.4,142.7z"/>
					<path class="st1" d="M222.6,134.1c0,0.5-0.1,1.2-0.1,1.8C222.6,135.4,222.6,134.3,222.6,134.1z"/>
					<path class="st1" d="M222.5,146.3c0,0.1,0,0.1,0,0.2C222.6,146.2,222.6,146.2,222.5,146.3z"/>
					<path class="st1" d="M222.5,146.3c0-0.5-0.1-1-0.1-1.4c0,0.6,0,1.2,0,1.7C222.5,146.6,222.5,146.4,222.5,146.3z"/>
					<path class="st1" d="M221.7,121.8c0.1,0.2,0.2,2.9,0.1,5.3c0.1,2.3,0.5,0.8,0.7-1.2c-0.1-0.1-0.1-0.1-0.2-2.5
						c-0.1,0.8-0.2,5.3-0.3,3.3c-0.1-3.2,0-2.6,0.1-4.1c-0.1,1.3-0.2-4-0.4-3.3l0.1,2.8C221.8,122,221.7,121,221.7,121.8z"/>
					<path class="st1" d="M222.4,130.4l0,1c0-1.1,0.1-1.9,0.2-3.4c-0.1-1.6-0.1-2-0.1-2.1l0,4.8L222.4,130.4z"/>
					<path class="st1" d="M222.5,135.8c-0.1-0.8-0.2-3.1-0.3-1.7c0,2.9,0.1,2,0.2,3.7C222.3,133.2,222.4,139.2,222.5,135.8
						c0,0.9,0,1.8,0,2.6c0-0.8,0-1.6,0.1-2.4c0,0,0,0.1,0,0.1v0l0,0c0,0.2,0,0.3,0,0c0,0,0-0.1,0-0.1
						C222.5,135.9,222.5,135.9,222.5,135.8c0-1.3,0-0.2,0,0.2c0,0,0,0.1,0,0.1c0,0,0,0,0,0l-0.1-4.7
						C222.4,132.3,222.4,133.6,222.5,135.8z"/>
					<path class="st1" d="M221.8,159.2c0-0.1,0-0.1,0-0.2C221.8,158.7,221.8,158.6,221.8,159.2z"/>
					<path class="st1" d="M221.9,157.2c0,0.3,0.1,0.6,0.1,1.7c0,1-0.1,0-0.1,0c0,0.7,0.1,2.3,0.2,0.2l0-0.3c0-1.9,0.2-4.3,0.2-4
						C222.1,155.5,222,156,221.9,157.2z"/>
					<path class="st1" d="M222.1,146.4l-0.1-3.9l-0.1,2l0.1-0.1C222,146.6,222.1,146.1,222.1,146.4z"/>
					<polygon class="st1" points="222.5,125.2 222.7,125.7 222.5,123.4 					"/>
					<polygon class="st1" points="222.5,120.1 222.7,120.3 222.6,119 					"/>
					<path class="st1" d="M77.3,116.7l0,1.1C77.3,117.3,77.3,117,77.3,116.7z"/>
					<path class="st1" d="M77.3,108.5l-0.1-0.2C77.3,108.7,77.3,108.8,77.3,108.5z"/>
					<path class="st1" d="M166.3,60.4c-1.4-0.1-3-0.3-2.8-0.2l0.4,0.2C164.9,60.4,165.7,60.4,166.3,60.4z"/>
					<path class="st1" d="M94.1,61.3c0.1,0,0.3,0,0.4,0c0.3-0.1,0.7-0.1,1-0.1C95,61.3,94.6,61.3,94.1,61.3z"/>
					<path class="st1" d="M93.1,62l-1.9-0.1C91.6,61.9,92.2,61.9,93.1,62z"/>
					<path class="st1" d="M77.5,161.9l0.1,1.3C77.6,161.1,77.5,162,77.5,161.9z"/>
					<path class="st1" d="M222.5,68.4c0.1-1.4,0.1-2.6,0.1-3.6C222.5,66.6,222.4,67.9,222.5,68.4z"/>
					<path class="st1" d="M75.9,113.5c0,0.7,0.1,1,0.1,1C76,113.7,76,113.3,75.9,113.5z"/>
					<path class="st1" d="M221.7,60.4c0.3,0,0.6,0,0.8,0c0,0.1,0,0.2,0,0.3c0,0.8,0,1.6,0,2.4c0,0.6,0,1.1,0,1.8
						c0-0.5,0-1.1,0.1-1.7c0-0.1,0-0.3,0-0.4c0-0.3,0-0.5,0-0.8c0-0.5,0-1,0-1.5C222.3,60.3,222,60.4,221.7,60.4z"/>
					<path class="st1" d="M169.4,215.6c0.1,0,0.2,0,0.3,0C169.8,215.6,169.6,215.6,169.4,215.6z"/>
					<path class="st1" d="M210,217.2c-0.4,0-1.1,0-1.7,0C208.6,217.2,209.1,217.2,210,217.2z"/>
					<path class="st1" d="M222.6,99.8C222.6,100.9,222.6,100,222.6,99.8L222.6,99.8z"/>
					<path class="st1" d="M222.1,105c0-0.2,0-0.4-0.1-0.4C222,104.7,222.1,104.8,222.1,105z"/>
					<path class="st1" d="M212.2,61.3C212.2,61.3,212.1,61.3,212.2,61.3C212.4,61.3,212.3,61.3,212.2,61.3z"/>
					<path class="st1" d="M222.5,101.4c0-0.4,0-0.9,0-1.4C222.6,100.3,222.5,100.7,222.5,101.4z"/>
					<path class="st1" d="M222.6,101.2c0,0.4,0,0.7,0,0.9C222.6,102.3,222.6,102.1,222.6,101.2z"/>
					<path class="st1" d="M222.6,98.3c0,0.6,0,1.2,0,1.7c0-0.2,0-0.3,0-0.2C222.6,99.5,222.6,99,222.6,98.3z"/>
					<path class="st1" d="M94.8,216c0.1,0,0.1,0,0.2,0C95.9,216,95.5,216,94.8,216z"/>
					<path class="st1" d="M142.6,62c0,0,0.1,0,0.1,0C142.7,62,142.6,62,142.6,62L142.6,62z"/>
					<path class="st1" d="M139.3,62.1c1.4-0.2,2.2-0.2,3.2-0.1l-1.1-0.4L139.3,62.1z"/>
					<path class="st1" d="M77.4,136.5l0.1-2.7c0.2,3.3,0.1,5.6,0.3,3.1c-0.4-0.4,0-10.5-0.4-10.9l0.1-1.8c0,0.5,0,0.6,0,1.1
						c0.2-3.5-0.3-2.6-0.2-7c0-1.6,0.1-2.6,0.1-1.6l-0.1-3.5c0-1,0.1-0.8,0.1,0.2l0-5.3l0,0c-0.1-0.8-0.2-2.5-0.2-3.3
						c0.1-1.3,0,0.7,0.1,0.3l-0.1-2.9c0.1-1.2,0.2,1.2,0.2,3.3c0.4-2.7-0.1-2.4,0.1-8.3l0.1,2.8c0.2-1.8,0.1-3.9,0.3-7.1
						c-0.1,0.7-0.4,6.3-0.5,3.1c0-0.9,0-2.1,0-3.8c0.1,0,0.1-1.7,0.1-3.8l0.2,0.1c-0.1-2.3-0.2-2.1-0.2-3.4c0-2.5,0.2-3,0.3-3.6
						c0-4-0.2,2.8-0.3-2c0.1-3.4,0-5.7-0.1-9.7c0.1-2.4,0.1,0.4,0.2-0.4l-0.2-2.1c0-0.5,0.1-0.3,0.1-0.3c-0.1-1.8-0.2-0.1-0.2-2.9
						c0-0.2-0.1-0.5,0-1c0-0.6,0-0.9,0.1-1.4c0.1,0,0.3,0,0.4,0c0.1,0,0.1,0,0.2,0c0.1,0,0.1,0,0.2,0c0.4,0,0.9,0,1.3,0.1
						c0.9,0,1.8,0,2.6-0.1c0.7,0.1-0.3,0.1-0.1,0.2c4-0.2,3.4-0.1,6.7-0.4l2.8,0.1c-2.1-0.2,0.6-0.4,2.9-0.5
						c-0.7-0.1-1.3-0.2-1.8-0.2L96,61c0.4,0,0.1,0.1-0.5,0.2c0.3,0,0.5,0,0.7-0.1c1.3,0.1,0.6,0.2-0.3,0.3c-0.4,0-0.9-0.1-1.3-0.1
						c-0.9,0.1-1.7,0.3-1.6,0.4c0.2,0,0.7,0,1.2-0.1c-0.2,0-0.4,0.1-0.3,0.1c0.1,0,0.5,0,1.1-0.1l0.8,0.2l0.2-0.1l4.8,0.2
						c3.4-0.3,6.4-0.6,11.8-0.7c-1.3,0.2-0.3,0.3-0.4,0.5c-1.5-0.2-4.2,0.1-7,0.1c1.5,0,1.1,0.1,0.8,0.2l5-0.2
						c-0.1,0.2,1.1,0.1,2.4,0.2c-1-0.4,3.7-0.2,5.8-0.3c0.1,0.1-0.4,0.2-2.9,0.2c2.8,0.3,3.6-0.4,6.3-0.2c-0.6,0-0.9,0-1.2,0
						c1.4-0.1,4.9,0,4.1,0.1l-0.6,0c4,0,12.3,0,12.9-0.3c0,0-0.5,0.4-0.8,0.4l7.2-1c-0.6,0.3,1.8,0.9-1.5,1c1,0,2.2,0.1,4.2,0
						c-0.7,0-1.6-0.4-0.7-0.4c2.5,0.3,1.7,0.2,4.8,0.4c-1-0.1,0.1-0.5,1.7-0.4c-0.2,0.1,0.1,0.4-0.4,0.4l3.9-0.4
						c-1,0.1-0.2,0.3,0.7,0.4c-0.4-0.1,3.3,0,4.4,0l-1.6-0.1c4.4,0.1,4.3-0.6,8.7-0.5c-0.5,0.1-1.3,0.5,0.9,0.5c1-0.2,4.5-1,8.3-1.1
						l0.7,0.1l2.9-0.1c-1.8,0.3-7,0.9-9.8,1.2c1.6,0.1,0.5,0.1,2.9,0.1c0.9,0.1-1.3,0.2-2.1,0.2l5.7,0.1c-0.3-0.2,4.4-0.2,4.1-0.4
						l-6.2,0.2c-0.3-0.2,3.6-0.7,7.6-0.6c1,0.1-0.8,0.4-0.7,0.5c0.5-0.1,3.8-0.2,4.2-0.1l-1.7,0.1c2.2,0.1,3.7-0.3,6.4-0.1
						c0.9,0,2.8,0.3,3,0.2c-1.5-0.3-1.8-1.1-0.8-1.3c0.3,0,4.9,0.3,6,0.4c1.5,0.2-2.3,0.5-1,0.7c0.1-0.1,0.9-0.1,1.3-0.2
						c1,0.1-0.4,0.2,1.7,0.2c0.4-0.2,4.3,0,1-0.2c2.1-0.1,2.2,0,4.7,0c-0.8-0.2,2.2-0.5,4.3-0.6c-0.1,0.1,0.3,0.1,0.6,0.2
						c1.9,0,3.5,0,5,0.1c0.7,0,1.5,0,2.2,0c0.7,0,1.5,0,2.3,0c0,0.3,0,0.6,0,1c0,0,0,0.1,0,0.2c0,0.1,0,0.2,0,0.4c0,0.3,0,0.5,0,0.8
						c0,0.5-0.1,0.8-0.1,0.3c0,0.7,0.1,1.3,0.1,2.7c-0.2,2.8,0-3.2-0.2-1.1c0.1,0.2,0.2,3.7,0.2,5.8c0.2-0.6,0-4.8,0-6.8
						c0.3,0,0.5,3.6,0.6,8.5c0.1,3.9-0.2,1.7-0.1,2.4c0,7.3,0.4,6.2,0.3,12.3c-0.2,2.4-0.3,0.1-0.4,0.6c-0.1-3.2,0.1-4.9,0.1-7
						l-0.1,2.6c-0.1-1-0.1-3.1,0-4.3c-0.1,2,0,12.3-0.2,18c0.1,1,0.1,2.7,0.2,1.9l0-1.8c0.1-1.6,0.2,3.4,0.2,1.1
						c0.1,2.4,0.2,5.1,0.2,8.4l-0.2,0.6c0.1-0.1,0.1-2.2,0.1-3.1c0.1,1.4-0.2,5.2,0,6.7l0.1-2.4c0.1,2.4,0.3,5.4,0.2,8.4
						c0.2-1.4,0-0.7,0.2-2.8c-0.3,1.8,0-7.6-0.3-4.7c0.2-2.2,0.1-3.8,0.3-6.6c-0.1,0.1-0.1,1-0.1-1.5c0-0.1,0-0.4-0.1-0.5
						c0-0.1,0-0.1,0-0.2c0,0,0,0.1,0,0.1c0-0.1,0-0.1,0,0.1c0,0.6-0.1,1.1-0.1,1.3c-0.1-1.2-0.1-5.2-0.2-6.6c0-1.5,0.1,0.6,0.1-0.2
						l-0.1-2c0.1-0.2,0.2-4,0.3-0.4l0-3.2c0.1-1.9,0.1-4.4,0-6c0-1.5-0.1-3.8,0-2.5l-0.1-4.9l0,0c0-2.4,0-4.9-0.1-7.5
						c0-1.3,0-2.6,0-4c0-0.7,0-1.4,0-2c0-0.9,0-1.9,0.1-2.9c0-0.1,0-0.2,0-0.2c-0.9,0-1.8,0-2.9,0.1c-0.8,0-1.7,0-2.9,0l-0.5-0.1
						c-1.8,0-5.4-0.1-6.2,0c-1.9-0.4-8.7-0.1-11.9-0.1l-0.1,0.2c-2.2,0-4.3,0-6.9,0.1l0.2,0.2c-2.3,0.1-6-0.1-9.7-0.1
						c0.3-0.1,1.2,0,1.8,0c-4.4-0.4-9.3,0.3-13.3,0c-1,0.1-1.7,0-2.4,0c0.1,0,0.2,0,0.2,0c-0.1,0-0.3,0-0.4,0
						c-0.4,0-0.9-0.1-1.4-0.1c0.4,0,0.8,0.1,1.2,0.1c-0.8,0-1.9,0-3.1,0.1l-0.5-0.2c-0.1,0-0.2,0-0.3,0c-1.1-0.1-0.9,0.1-0.3,0.2
						c-0.6,0-1.1,0.1-1.5,0.1c-0.9-0.3-3,0.1-4.2-0.2c-0.8,0.1-5.7,0.1-6.3,0.4c0,0-0.4-0.1,0.2-0.1c-1.3,0-2.5-0.1-3.7,0l-0.5-0.2
						l-2.8,0.3c-1.7-0.1-2.4-0.2-0.7-0.4c-4,0.3-3.3,0.1-6.7,0.3l0.2-0.1c-1.2,0-3.2,0.2-3.9,0.1c-2.7-0.3-13.6,0-20.6-0.3
						c1.4,0.4-3.3-0.2-3.6,0.1c-0.4-0.1-1.4-0.2-0.3-0.2c-3.6,0.1-5.4-0.2-7.9,0.1c-0.4-0.1,0.8-0.1,0.4-0.2c-0.3,0-1.1,0.1-1.5,0
						c-0.4-0.1,0.5-0.1,1.1-0.1c-3.7,0-4,0.3-4.3,0.6c-1.9-0.1-2.8-0.1-4.1,0.1c-0.6-0.1-1.7-0.2,0.6-0.2c-1.3,0-7.8-0.1-8,0.1
						c-0.4-0.1-1.8,0-2.1,0c-1.4,0-2.2,0-3,0c-0.8,0-1.7,0-3.2,0l1,0c-0.1,0-0.1,0-0.2,0l-0.2,0c-0.1,0-0.3,0-0.4,0
						c-0.3,0-0.5,0-0.8,0c0,0.3,0,0.6,0,1c0,0.3,0,0.7,0,1c0,0.6,0,1.4,0,2.2l0-0.1c-0.2,6.1,0.1,2.7-0.1,8.7l0.1-0.3
						c0.3,0.6-0.2,5.4-0.1,8.9l0.1-1.3c0.1,1.9-0.4,5.4-0.5,7.3c0,0.4,0-0.7-0.1-1.3c-0.2,5.1,0.2,0.7,0.2,4.4
						c-0.1,0.7-0.3-0.9-0.3,1.6c-0.1,1.3,0.3,7.4,0.1,10.8c0.1-0.8,0.2-1.5,0.2,0.2c0,2.7-0.3,7.2,0,9.7c0,0.3,0,0.5-0.1,0.5
						c0.1,2,0.1,6.7,0.2,7.9c-0.5,1.9,0.2,12.7-0.2,12.7l0,6.3l0-0.2c0,4,0.1,5.5,0.2,6.9c0,0.9-0.1,0.3-0.1,0.2
						c-0.1,5.9-0.1,6.5,0.2,11.4l-0.1,0.5c0.1,1.3-0.2,8.5-0.1,14.3c0-0.1,0-0.2-0.1-0.6c0.2,6.5-0.4,15.6,0.1,17.9l0.1,4.3
						c0-5.5,0.2,0.8,0.3-1.5c0,2.2-0.2,5.6-0.2,3l0-0.4c-0.3-1-0.1,6.9-0.3,6.7c0,2.1,0,4.3,0,6.4c0,2.3,0,4.6,0,6.9
						c3,0,5.9,0.1,8.8,0.1c2.7,0,5.4,0,8,0l-1-0.3l3,0c0.8,0.1,1.1,0.2-1.1,0.2c1.1,0.1,3.6-0.1,3.7-0.2c4.2,0.1-1.7,0.3-0.4,0.3
						l1.8,0l-0.4,0c1.4-0.1,1.6-0.2,4.2-0.2c1.6,0.1,0.8,0.2,1.5,0.2c0,0,0.1,0,0.2,0c0.2,0,0.4,0,0.8,0l3.8,0l-1.5-0.2
						c1.7-0.1,3.6,0,1.8-0.2c2.6,0.4,14.3,0.1,15.8,0.2c2.4-0.1,4.7-0.1,7.6-0.1c-0.7,0-1.2-0.3,1.3-0.2c-0.9,0.5,4.6,0.2,6.6,0.5
						c-1.8-0.2,7.1-0.1,4.3-0.4c2.1,0,0.1,0.2,1.7,0.3c5-0.2,11,0.1,17.1,0.1c0.1-0.1-0.9-0.2,0.4-0.2l3.2,0.3
						c1.2,0,1.1-0.4,3.3-0.1c-0.3-0.1-0.8-0.1,0-0.2c12,0.3,24.6-0.2,36.8,0.3c-1.7-0.1-0.6-0.1,0.7-0.1c-0.8,0,0-0.2-0.1-0.2
						l5.1,0.2c0.9-0.2,5.5,0,6-0.2l-1.6,0c2.2-0.3-3-0.6-2.7-0.9c-2.4,0.3-6.4-0.4-10.3,0c-0.9-0.1,0.7-0.1,0.3-0.2
						c-1,0.1-2.2,0.2-4.5,0.1l0.3,0c-6.3,0-9-0.1-16.1-0.2l0.5,0.2c-1.5,0-1.8-0.1-2.6-0.1c-1.7,0.3,4.3,0,2.7,0.3
						c-2-0.3-10.7,0-12.1-0.4c-2.3,0,0.7,0.2-1.7,0.2l-0.6-0.1l-0.6,0.1c-1.5,0-2.3-0.2-2.4-0.2c0.4,0,1.1,0,1.5,0
						c-2-0.1-5.6,0-6.3,0l2.2,0.1c-6.4,0.1-14.2,0-20.4,0.2l0.5,0.1c-4.7,0.1-3.8-0.1-9,0l0.2,0c-1,0.1-2.4,0.1-3.8,0.1
						c1.3-0.1-2.5-0.2-0.7-0.3c-5.1,0.2-2.5,0.1-5.9,0.4l-0.8-0.1c-1.2,0.1-1.2,0.2-3.8,0.2c2.1-0.1-1.7-0.2,0.7-0.3
						c-5.4-0.3-8.1,0.3-10.5-0.1c-2.5,0.4,4.7,0.2,3.3,0.3c1.2,0.1-2.1,0.3-3.8,0.2c-1.7,0-2.9-0.5-7.3-0.5c0.4,0,0.5,0,0.9,0
						c-1.6-0.1-3.2,0.1-5.2,0c-1.1,0.2-2.6,0-2.9,0.3l4-0.1c-2.3,0.1-4.4,0.4-8.1,0.2c0.3-0.1,1.4-0.1,2.2-0.2
						c-1.1-0.1-2.1,0.1-3.2,0c0.3-0.3,4.9-0.1,7.3-0.3c-1.2-0.1-4.6,0.2-3.4-0.1c-1.8,0.4-4.3,0-7.3,0.2l0.2-0.2
						c-0.5,0-1.4,0.1-2.3,0.1l1.6-0.2c-2.4,0.2-4.6-0.2-6.9-0.1c4.8,0,1.1,0.2,3.1,0.3c-2.4,0.1-3.4,0-4.2-0.1
						c-0.4-0.1-0.8-0.1-1.2-0.2c-0.1,0-0.2,0-0.4,0c-0.1,0-0.1,0-0.2,0c0,0-0.1,0-0.1,0l0,0c-0.1,0-0.2,0-0.3-0.1c0-0.1,0-0.1,0-0.2
						c0,0,0-0.1,0-0.1c0,0,0-0.1,0-0.2c0-0.5,0-1.2,0-1.8c0,0.3,0,0.6,0,1c0,0.2,0,0.4,0,0.6c0,0.1,0,0.2,0,0.3c0,0,0,0.1,0,0.1
						c0,0.2-0.1,0.4-0.1,0.1c0-0.7,0-1.4,0.1-2.2c0-0.8,0.1-1.5,0.1-2c0-5.2-0.1,0.8-0.2-1.4c0.2-1.8-0.1-2.5-0.1-4.8l0.1,0
						c0.1-5.9-0.3-1.6-0.2-6.9l0.2,2.2l-0.1-2.8l0.2,0.6c-0.1-3-0.1-3.9,0-6.9c-0.1,0.7-0.3-0.4-0.3-3c0.1-1.8,0.1,1,0.1-2.7
						c0.1,0.8,0.2,1.7,0.1,3.4c0,0.2,0.1,0.8,0.1,1c0.1-1.9,0-4.8,0-6.2c0,0.5,0,1.1,0,1.4l-0.2-5.4c0.1-0.8,0.1-0.2,0.1,0.5
						c0-1.1-0.1-1.8-0.1-3.4c0.1,0.4,0.2,0.3,0.3,2.6l-0.1-5.1c0.1-0.3,0.1-2.6,0.2-2c0.1-2.8-0.2-6.9-0.1-10.7c0-0.2,0-0.6-0.1-1.4
						c0-3.5,0.2-6.6,0-10.8l0.2-2.4c0-3.3-0.3,3.2-0.3-2.2c-0.1-3.9,0.2-1.4,0.2-2.8c-0.1-1.9-0.3-5.3-0.1-8.8
						C77.4,134.5,77.3,135.4,77.4,136.5z M77.3,96.2c0,0.8,0.1,2.3,0,2.9C77.1,98.2,77.2,97.5,77.3,96.2z M99.1,61.6
						c-0.5,0.1-1.3,0-2.1,0C97.6,61.6,98.4,61.6,99.1,61.6z M222.5,88.1C222.5,88,222.5,88,222.5,88.1
						C222.5,86.2,222.5,86.8,222.5,88.1z M222.4,91.7c0,0.4,0,0.3,0.1,0.2c0-0.3,0-1.1,0-2C222.4,90.1,222.4,90.6,222.4,91.7z
						 M104.5,217.2l-0.6,0C105.3,217.1,104.9,217.1,104.5,217.2z"/>
					<path class="st1" d="M93.2,61.9c-0.2,0-0.2-0.1-0.3-0.1C92.7,61.8,92.7,61.8,93.2,61.9z"/>
					<path class="st1" d="M77.4,161.6l0,0.1c0,0.1,0,0.1,0,0.1L77.4,161.6z"/>
					<path class="st1" d="M199.9,62c-0.6,0-1-0.1-1.2-0.1C198.6,61.9,198.9,62,199.9,62z"/>
					<path class="st1" d="M222.7,110.9l0-2.3c0,1.1,0,1.5,0,2.1C222.6,110.6,222.7,110.2,222.7,110.9z"/>
					<path class="st1" d="M221.8,131c0,0.3,0,0.7,0,1.1l0.1-0.1C221.8,130.5,221.8,129.5,221.8,131z"/>
					<path class="st1" d="M222.2,113c-0.1,0.2-0.1,1.6-0.1,3.3c0-0.1,0-0.2,0-0.3C222.3,116.5,222.2,114.7,222.2,113z"/>
					<path class="st1" d="M222.1,116.7c0,0.5,0,1,0,1.5C222.2,118.4,222.1,117.6,222.1,116.7z"/>
					<path class="st1" d="M222.5,96.3c0,0.8,0.2,0.5,0.1,0.9C222.7,98.1,222.4,92.1,222.5,96.3z"/>
					<polygon class="st1" points="221.8,114.3 221.9,113.8 221.8,112.8 					"/>
					<path class="st1" d="M221.9,101.5l0,2.6c0,0,0,0.3,0.1,0.7C221.9,103.2,221.9,101.4,221.9,101.5z"/>
					<path class="st1" d="M221.9,104.8c0,0.8,0,1.6,0,2.1C221.9,106.4,221.9,105.5,221.9,104.8z"/>
					<polygon class="st1" points="221.7,110.8 221.8,110 221.8,108.2 					"/>
					<path class="st1" d="M221.9,73.6l0-2.8c-0.1-0.3-0.1,0.5-0.1,1.5C221.8,73,221.9,74,221.9,73.6z"/>
					<path class="st1" d="M221.5,82.2c0-0.8,0.1-0.8,0.1-1.3l-0.2-0.1L221.5,82.2z"/>
					<path class="st1" d="M221.5,73.9c-0.1-0.3-0.1-4.1-0.1-0.5C221.4,73.7,221.4,76.5,221.5,73.9z"/>
					<polygon class="st1" points="196.2,61.4 196.8,61.4 196.7,61 					"/>
					<path class="st1" d="M164.1,62.2c2.9,0.1,0.7-0.2,3.3-0.1c0.7-0.1-2.1-0.1-1.4-0.2C164.2,62,163.3,62,164.1,62.2z"/>
					<path class="st1" d="M166,62c0.3,0,0.6,0,0.9-0.1C166.4,61.9,166.1,61.9,166,62z"/>
					<polygon class="st1" points="216.7,217.4 218.6,217.4 217.4,217.3 					"/>
					<path class="st1" d="M220.2,217.1l0.4,0.2l1.1-0.2C221.4,217.1,220.6,217.1,220.2,217.1z"/>
					<path class="st1" d="M77.7,90.2l0-0.2c-0.1,0.3-0.1,0.8-0.1,1.9L77.7,90.2z"/>
					<polygon class="st1" points="77.5,119.5 77.5,119 77.3,119.9 					"/>
					<path class="st1" d="M77.7,144c0-1,0-2.2,0-3.2C77.7,143,77.5,144.3,77.7,144z"/>
				</g>
			</g>
		</g>
	</g>
</g>
<g>
	<g>
		<g>
			<g>
				<g>
					<path class="st1" d="M128.7,213c-0.1,0.2,0.6,0.1,0.7,0.2C129.2,212.8,128.5,213,128.7,213z"/>
					<polygon class="st1" points="127.2,209.4 127.5,209.4 126.9,208.9 					"/>
					<path class="st1" d="M127.2,206c-1.1,0.3,0.2,1.2-0.2,1.8l-0.2,0.1l0.9,0.3C127.5,207.5,127,206.5,127.2,206z"/>
					<path class="st1" d="M129.5,204.2c-0.4,0.1-0.4-0.4-0.1,0.4c0,0,0.1-0.1,0.1-0.1C129.5,204.5,129.5,204.4,129.5,204.2z"/>
					<path class="st1" d="M129.5,204.5C129.6,204.9,129.9,204.3,129.5,204.5L129.5,204.5z"/>
					<path class="st1" d="M129.3,202.9l0.4,0.5c0.2-0.1,0.3-0.5,0.5-0.4C129.9,202.5,129.7,202.6,129.3,202.9z"/>
					<path class="st1" d="M128.5,202.4l0.2,0.2C128.8,202.6,128.8,202.6,128.5,202.4z"/>
					<path class="st1" d="M129,203.2l-0.3-0.5c-0.2,0.1-0.5,0.1,0.1,0.2C128.5,202.9,128.8,203,129,203.2z"/>
					<path class="st1" d="M128.8,203.5c-0.2,0.3-0.4,0.6-0.7,0.1C128.2,204.5,129,204.4,128.8,203.5z"/>
					<path class="st1" d="M126.1,205.8l-0.3,0.4l0.4,0.3C126,206.3,126.5,205.8,126.1,205.8z"/>
					<path class="st1" d="M129.8,200c-0.2,0-0.6,0.2-0.9,0.2l0.3,0.3C129.4,200.3,129.5,200,129.8,200z"/>
					<path class="st1" d="M128.9,200.2l-0.4-0.5C128.5,200.1,128.7,200.2,128.9,200.2z"/>
					<polygon class="st1" points="127.3,202.4 128.1,203.2 127.3,202.2 					"/>
					<polygon class="st1" points="129.9,198 130.4,198.3 129.6,197.7 					"/>
					<path class="st1" d="M129.8,196.7c0.4,0.2,0.7-0.3,1-0.1c-0.1-0.4-0.4-0.7-0.8-0.9C130.2,195.9,130.1,196.3,129.8,196.7z"/>
					<path class="st1" d="M129.5,195.2c0.1,0.1,0.3,0.3,0.5,0.5C129.9,195.5,129.7,195.3,129.5,195.2z"/>
					<path class="st1" d="M128.7,198.7c0.1,0,0.5-0.1,0.6-0.4l-0.6,0.2C128.7,198.6,128.7,198.7,128.7,198.7z"/>
					<path class="st1" d="M128.7,198.6L128.7,198.6c0-0.2,0.1-0.4,0.1-0.4C128.7,198.2,128.7,198.3,128.7,198.6z"/>
					<path class="st1" d="M128.7,198.8C128.7,198.8,128.7,198.8,128.7,198.8C128.6,198.8,128.6,198.8,128.7,198.8z"/>
					<path class="st1" d="M127.9,201c-0.4-0.3-0.7-0.9-1.3-0.3C127.1,200.9,127.4,200.5,127.9,201z"/>
					<path class="st1" d="M127.9,199.1l-0.1,0.5c0.2,0,0.4-0.1,0.6,0L127.9,199.1z"/>
					<polygon class="st1" points="127.7,198.8 127.9,199.1 127.9,198.8 					"/>
					<path class="st1" d="M128.9,196.1c-0.3-0.2-0.3-0.5-0.3-0.8c-0.1,0.3-0.2,0.6-0.2,1C128.6,196.3,128.9,196.5,128.9,196.1z"/>
					<path class="st1" d="M128.7,197.3C128.7,197.3,128.7,197.3,128.7,197.3C128.6,197.3,128.6,197.3,128.7,197.3z"/>
					<path class="st1" d="M128.6,192.4c0,0-0.1,0-0.1,0C128.5,192.5,128.5,192.5,128.6,192.4L128.6,192.4z"/>
					<path class="st1" d="M128.3,196.4c-0.1,0.2,0,0.4,0.2,0.5c-0.1-0.2-0.1-0.4-0.1-0.6C128.3,196.3,128.2,196.3,128.3,196.4z"/>
					<path class="st1" d="M129.2,194.4c-0.1,0.1-0.2,0.3-0.3,0.4C129.1,194.7,129.4,194.4,129.2,194.4z"/>
					<path class="st1" d="M128.9,197.2C128.9,197.2,128.9,197.2,128.9,197.2C129,197.1,129,197.1,128.9,197.2z"/>
					<path class="st1" d="M128.9,197.2c-0.1-0.1-0.2-0.2-0.4-0.3c0.1,0.1,0.1,0.3,0.2,0.4C128.7,197.2,128.8,197.2,128.9,197.2z"/>
					<path class="st1" d="M124.5,191.6c0.6,0,1.1,0.7,0.5,1.2c0.4,0.5,2.4,0.2,3.5-0.3c-0.3,0-0.5,0-0.8-0.6
						c-0.3,0.2-0.8,1.2-1.3,0.7c-0.3-0.7,0.2-0.6,0.5-0.9c-0.7,0.3-1.1-0.9-2.2-0.8l0.4,0.6C124.9,191.6,124.6,191.4,124.5,191.6z"
						/>
					<path class="st1" d="M128.4,193.5l0.1,0.2c0.1-0.3,0.3-0.4,0.8-0.8c-0.3-0.4-0.5-0.5-0.7-0.5L128.4,193.5L128.4,193.5z"/>
					<path class="st1" d="M128.5,194.8c-0.6-0.2-0.9-0.7-1.6-0.4c0,0.7,0.5,0.5,0.8,0.9C127.5,194.2,128,195.5,128.5,194.8
						c0,0.2,0.1,0.4,0.1,0.6c0.1-0.2,0.2-0.4,0.3-0.5c0,0,0,0,0,0l0,0c0,0,0,0,0,0c-0.1,0-0.1,0.1-0.1,0c0,0,0,0,0,0
						C128.6,194.8,128.5,194.8,128.5,194.8c0.1-0.3,0.2,0,0.2,0c0,0,0.1,0,0.1,0c0,0,0,0,0,0l-0.4-1.1
						C128.4,194,128.4,194.3,128.5,194.8z"/>
					<path class="st1" d="M125.2,200.1c0.1,0,0.1,0,0.1,0C125.3,200,125.3,200,125.2,200.1z"/>
					<path class="st1" d="M125.6,199.7c0.1,0.1,0.3,0.1,0.3,0.4c-0.2,0.2-0.3,0-0.5,0c0.2,0.2,0.5,0.5,0.8,0.1l-0.1-0.1
						c0.2-0.4,1-1,1.1-0.9C126.6,199.3,126.2,199.4,125.6,199.7z"/>
					<path class="st1" d="M126.9,197.2l-0.3-0.9l-0.6,0.5l0.3,0C126.2,197.2,126.6,197.1,126.9,197.2z"/>
					<polygon class="st1" points="128.9,192.3 129.6,192.5 128.6,192 					"/>
					<polygon class="st1" points="128.8,191.2 129.4,191.2 129,190.9 					"/>
					<path class="st1" d="M121.5,126.3l-0.2-0.3C121.4,126.1,121.4,126.2,121.5,126.3z"/>
					<path class="st1" d="M121.4,128.1l0.3,0C121.6,128.1,121.5,128.1,121.4,128.1z"/>
					<path class="st1" d="M128.7,162.9c0.6-0.4,1.4-0.8,0.7-0.8l-0.6,0.1C128.9,162.6,128.9,162.8,128.7,162.9z"/>
					<path class="st1" d="M124.9,143.6c-0.1,0-0.1,0.1-0.2,0.1c0.2,0.1,0.4,0.2,0.6,0.3C125.2,143.8,125,143.7,124.9,143.6z"/>
					<path class="st1" d="M122.2,143.3l0.4-0.5C122.5,142.9,122.3,143.1,122.2,143.3z"/>
					<path class="st1" d="M120.8,116l-0.7-0.3C120.1,116.1,120.5,115.9,120.8,116z"/>
					<path class="st1" d="M128.6,179.4c0.3-0.3,0.4-0.6,0.4-0.8C128.6,179,128,179.3,128.6,179.4z"/>
					<path class="st1" d="M128.3,127c-0.1-0.2-0.2-0.2-0.4-0.2C128.1,126.9,128.2,127,128.3,127z"/>
					<path class="st1" d="M129,177.6c-0.1,0.1-0.1,0.1-0.2,0.2c0.1,0.2,0.2,0.5,0.2,0.8C129.2,178.3,129.4,178,129,177.6z"/>
					<path class="st1" d="M121.3,78.6C121.4,78.6,121.4,78.6,121.3,78.6C121.3,78.6,121.3,78.6,121.3,78.6z"/>
					<path class="st1" d="M127.9,67.8c0,0.1,0,0.3,0.1,0.4C128,68.1,127.9,68,127.9,67.8z"/>
					<path class="st1" d="M129.1,186.6C129.1,186.8,129.2,186.6,129.1,186.6L129.1,186.6z"/>
					<path class="st1" d="M126.5,187.8c-0.1-0.1-0.2-0.1-0.3-0.1C126.4,187.7,126.5,187.7,126.5,187.8z"/>
					<path class="st1" d="M124.9,175.2C124.9,175.2,124.9,175.2,124.9,175.2C124.8,175.3,124.8,175.3,124.9,175.2z"/>
					<path class="st1" d="M128.8,186.9c0.1-0.1,0.1-0.2,0.2-0.3C128.9,186.7,128.9,186.8,128.8,186.9z"/>
					<path class="st1" d="M129.1,186.9c0,0.1,0,0.2-0.1,0.2C129.1,187.1,129.2,187.1,129.1,186.9z"/>
					<path class="st1" d="M129.1,186.2c0,0.1,0,0.3-0.1,0.4c0,0,0.1-0.1,0.1-0.1C129.1,186.5,129.1,186.4,129.1,186.2z"/>
					<path class="st1" d="M123.1,98.6C123.1,98.6,123.1,98.6,123.1,98.6C122.9,98.3,122.9,98.5,123.1,98.6z"/>
					<path class="st1" d="M122,156.6C122,156.6,122,156.6,122,156.6C122.1,156.6,122.1,156.6,122,156.6L122,156.6z"/>
					<path class="st1" d="M121.5,155.7c0.8,0.4,0.7,0.6,0.5,0.9l1.9-0.3L121.5,155.7z"/>
					<path class="st1" d="M121.3,121.7l-0.6,0.6c-1-0.7-0.6-1.3-1.4-0.7c2,0.1,0.2,2.4,2.2,2.5l-0.4,0.4c0-0.1-0.1-0.1-0.1-0.2
						c-1,0.8,1.5,0.6,1.2,1.6c-0.2,0.4-0.5,0.6-0.7,0.4l0.5,0.8c0,0.2-0.4,0.2-0.4-0.1l0.2,1.2l-0.1,0c0.3,0.2,0.8,0.6,1,0.8
						c-0.3,0.3-0.2-0.2-0.5-0.1l0.5,0.7c-0.5,0.3-1-0.3-1-0.7c-2,0.6,0.5,0.6-0.7,1.9l-0.3-0.6c-1.1,0.4-0.7,0.9-1.4,1.6
						c0.4-0.2,1.8-1.4,2.3-0.7c-0.2,0.2-0.2,0.5,0.2,0.9c-0.7,0-0.5,0.4-0.5,0.9l-1,0c0.3,0.5,0.8,0.5,1.2,0.8
						c-0.1,0.6-0.8,0.7-1.5,0.8c-0.2,0.9,1.2-0.6,1.4,0.5c-0.4,0.8,0,1.3,0.6,2.2c-0.3,0.5-0.6-0.1-0.9,0.1l0.8,0.5
						c0,0.1-0.3,0.1-0.4,0.1c0.3,0.4,1,0,1.2,0.7c1,0.2-1.5,1.3-0.3,2.1c-0.3,0.2-0.6-0.1-1,0c0.8,1.1,0.6,0.9,1.6,1.8l-0.6,0.7
						c0.7-0.5,1.6,0.2,2.3,0.8c0.3-0.2,0.6-0.4,0.8-0.5l0.5,1c-0.2,0.1-0.5,0-0.9-0.1c0.1,0.1,0.2,0.1,0.2,0.2
						c-0.4,0.4-0.9,0.2-1.4-0.1c0.2-0.1,0.4-0.2,0.6-0.4c-0.6-0.2-1.2-0.5-1.8-0.4c0.1,0.1,0.2,0.2,0.3,0.3
						c-0.2-0.1-0.3-0.1-0.4-0.1c-0.1,0,0.1,0.1,0.4,0.3l-1.1,0.2l0.4,0.1l-0.7,1.3c1.1,0.9,2.6,1.7,3.1,3.2
						c-0.8-0.4-1.3-0.1-2.2-0.1c1-0.4-0.4-1.1-0.2-1.9c-0.1,0.4-0.5,0.3-0.7,0.2l0.9,1.3c-0.8,0-0.6,0.3-0.9,0.6
						c1.5-0.3,1,1,1.5,1.6c-0.5,0-1-0.1-0.9-0.8c-1.1,0.7,1.8,1,0.8,1.7c0-0.2,0.1-0.3-0.2-0.3c0.4,0.4,0.1,1.3-0.3,1.1l0-0.2
						c-0.2,1.1,0,3.3,1.3,3.5c-0.2,0-1.5-0.1-1.8-0.2l4.3,1.9c-1.1-0.2-3.7,0.5-4.3-0.4c-0.2,0.3-0.3,0.6,0,1.1
						c0.2-0.2,1.6-0.4,1.7-0.2c-1.2,0.7-0.6,0.5-1.7,1.3c0.2-0.3,1.9,0,1.9,0.4c-0.3-0.1-1.7,0-1.9-0.1l1.7,1
						c-0.3-0.3-1.4,0-1.9,0.2c0.3-0.1,0,0.9,0.1,1.2l0.4-0.4c-0.3,1.2,2.4,1.2,2.3,2.3c-0.3-0.1-2.1-0.3-2.3,0.2
						c0.9,0.3,4.1,1.2,4.8,2.2l-0.5,0.2l0.6,0.8c-1.3-0.5-4-1.9-5.1-2.6c-0.4,0.4-0.6,0.1-0.5,0.8c-0.5,0.2-0.7-0.4-0.7-0.5
						l-0.3,1.5c1-0.1,1,1.2,1.8,1.1l-1-1.7c1-0.1,2.8,1,2.7,2c-0.4,0.3-1.8-0.2-2.1-0.2c0.3,0.1,0.7,1,0.4,1.1l-0.5-0.5
						c-0.4,0.6,1.3,1,0.4,1.7c-0.1,0.2-1.3,0.7-0.7,0.8c1.1-0.4,4.7-0.5,5.5-0.2c-0.1,0.1-1.1,1.3-1.7,1.6c-0.9,0.4-2.1-0.6-2.9-0.3
						c0.3,0,0.6,0.2,0.7,0.3c-0.2,0.3-0.8-0.1-0.7,0.5c1,0.1-0.1,1.2,0.9,0.3c0.3,0.6-0.2,0.6-0.2,1.3c0.7-0.2,2.2,0.6,2.5,1.1
						c-0.3,0-0.6,0.1-0.7,0.2c-0.1,1.1-0.6,1.8-0.6,2.8c-0.2,0.1-0.5,0.6-1,0.4c0.2,0.2,0.5,0.3,0.5,0.6c-0.9,0.6-0.1-0.7-1.2-0.2
						c0.6,0,0.8,0.9,1.2,1.3c0.9-0.1,0.2-1.1-0.2-1.6c1.3,0,2.6,0.8,3.2,1.9c0.3,0.9-0.8,0.4-0.6,0.5c-0.2,1.7,2.2,1.4,1.3,2.8
						c-0.8,0.5-1.6,0-2.2,0.1c-0.3-0.7,0.5-1.1,0.5-1.6l-0.4,0.6c-0.3-0.2-0.5-0.7-0.2-1c-0.7,0.5-0.1,2.8-0.8,4.1
						c0.3,0.2,0.5,0.6,0.9,0.4l-0.1-0.4c0.6-0.4,0.9,0.8,1.2,0.3c0.5,0.5,1.2,1.2,0.8,1.9l-0.9,0.1c0.3,0,0.5-0.5,0.3-0.7
						c0.4,0.3-1.2,1.2,0,1.5l0.6-0.5c0.5,0.5,1.4,1.2,1.1,1.9c0.9-0.3-0.1-0.2,1-0.6c-1.3,0.4,0.1-1.7-1.3-1.1
						c1.2-0.5,0.5-0.9,1.6-1.5c-0.3,0-0.6,0.2-0.4-0.3c-0.1,0-0.2-0.1-0.3-0.1c0,0,0,0,0,0c0,0,0,0,0,0c0,0-0.1,0,0,0
						c-0.1,0.1-0.3,0.2-0.5,0.3c-0.7-0.3-0.7-1.2-1-1.5c0.1-0.3,0.3,0.1,0.7,0l-0.5-0.5c0.7,0,1.1-0.9,1.5-0.1l0-0.7
						c0.4-0.4,0.5-1,0.2-1.4c0.1-0.3-0.7-0.9-0.2-0.6l-0.4-1.1l0.2,0c0.1-1.1-1.1-2.3,0.1-3.6c-0.2-0.4-0.4-0.8-0.2-1.4l0.6-0.1
						c-0.2-0.5,0.6-1.4,0-1.6c1.6-0.5,0.3-2.3,0.6-3.2l-0.8,0c0-0.6-0.2-1.1-0.5-1.9l-0.7,0c-0.5-0.6,0.5-1.6,0.4-2.6
						c0.3,0.1,0.2,0.3,0,0.5c1.5-1.2-1.1-2.5,0-3.6c-0.2-0.3-0.2-0.5,0-0.6c0,0,0,0,0,0.1c0,0,0-0.1,0-0.1c0.1-0.1,0.2-0.2,0.4-0.4
						c-0.2,0.1-0.3,0.2-0.4,0.3c0-0.2-0.1-0.5-0.3-0.8l0.7-0.1c0,0,0,0,0-0.1c0.3-0.3-0.3-0.2-0.9-0.1c-0.1-0.2-0.3-0.3-0.4-0.4
						c1.2-0.2-0.4-0.8,0.8-1.1c-0.6-0.2-0.5-1.5-1.7-1.7c0.2,0,0.2-0.1,0.3,0.1c0.1-0.3,0.3-0.7-0.1-1l0.9-0.1l-1.2-0.7
						c0.6-0.5,0.9-0.6,1.6-0.2c-1.1-1.1-0.4-0.9-1.5-1.8l0.6,0c0-0.3-0.8-0.9-0.3-1.1c1.1-0.7,0.2-3.6,1.2-5.5
						c-1.7,0.4,0.8-0.9-0.6-1c0.4-0.1,0.6-0.4,1-0.1c-0.4-1,0.7-1.4-0.5-2.1c0.4-0.1,0.6,0.2,0.8,0.1c-0.1-0.1-0.4-0.3-0.1-0.4
						c0.2-0.1,0.3,0.1,0.5,0.3c-0.1-1-1.3-1.1-2.5-1.2c0.6-0.5,0.5-0.7-0.3-1.1c0.4-0.2,0.8-0.5,0.9,0.1c0.1-0.3,0.6-2.1-0.4-2.1
						c0.2-0.1,0.1-0.5,0-0.6c0.1-0.8,0.1-0.8,0.1-1.6l-0.2,0.2c-1.1-0.3-0.3-0.6-0.4-1.2l0.1,0c0.8-1.4-0.4-0.6,0.5-2l-0.7,0.1
						c-1.5-0.1,0.9-1.2,0.3-2l-0.4,0.3c-0.5-0.4,2.1-1.2,2.3-1.7c0.1-0.1,0.2,0.2,0.3,0.3c0.9-1.2-0.9-0.2-1.2-1
						c0.5-0.2,1.3,0.2,1.4-0.4c0.4-0.3-1.6-1.7-0.7-2.5c-0.4,0.2-0.8,0.3-1.1-0.1c-0.1-0.6,1.5-1.7,0.2-2.2c0.1-0.1,0.2-0.1,0.3-0.1
						c-0.3-0.5-0.5-1.5-1.2-1.8c2.5-0.4-1.2-2.9,1.1-2.9l-0.1-1.4l0.2,0c0.2-0.9-0.4-1.2-0.9-1.6c0.2-0.2,0.4-0.1,0.5,0
						c0.5-1.3,0.4-1.5-0.8-2.6l0.7-0.1c-0.4-0.3,1.2-1.9,0.3-3.3c0.1,0,0.2,0,0.3,0.1c-0.9-1.5,2.1-3.5-0.6-4.1l-0.7-1
						c-0.2,1.3-1.2-0.2-1.6,0.3c-0.2-0.5,0.8-1.3,1-0.7l-0.1,0.1c1.4,0.2,0.5-1.6,1.5-1.5c-0.1-2.5,0.7-4.9,0.8-7.2l-1.1,0.3
						l0.1-0.8c0.3-0.2,0.9-0.3,0.8,0.3c0.6-0.3-0.5-1-0.8-1c0.4-1.1,1.3,0.4,1.3,0.1l-0.1-0.5l-0.1,0.1c-0.4-0.4-0.9-0.4-0.9-1.1
						c0.2-0.4,0.7-0.2,0.7-0.4c0.1,0,0.1-0.1,0-0.3l0.1-1l-0.9,0.4c-0.4-0.5,0-1-0.9-0.5c1.5-0.7,0.5-3.8,1-4.2
						c-0.6-0.6-0.6-1.3-0.5-2c-0.2,0.2-1.1,0.3-1-0.4c2,0.2,0.9-1.2,2.3-1.8c-1,0.5-0.2-1.9-1.6-1.1c0.2-0.6,0.7,0,1.2-0.5
						c-0.8-1.3,0.5-2.9,0.2-4.6c-0.3,0-0.7,0.2-1.1-0.1l1.3-0.9c-0.1-0.3-1.5-0.3-0.6-0.9c-0.2,0.1-0.6,0.2-0.6,0
						c1.3-3.2-1-6.6,1.4-9.9c-0.5,0.4-0.6,0.1-0.6-0.2c-0.1,0.2-0.6,0-1,0l1-1.4c-1-0.2-0.1-1.5-1-1.6l0.2,0.4
						c-1.1-0.6-2.5,0.8-3.9,0.7c1.3,0.6-1.9,1.7-0.1,2.8c-0.3,0.2-0.5-0.2-0.8-0.1c0.6,0.3,0.7,0.6,0.5,1.2l-0.2-0.1
						c0.1,1.7-0.5,2.4-0.9,4.3l0.7-0.1c-0.1,0.4-0.3,0.5-0.5,0.7c1.1,0.5,0.1-1.1,1.2-0.7c-1.4,0.5,0,2.9-1.7,3.2
						c0,0.6,0.8-0.2,0.8,0.4l-0.4,0.2l0.6,0.2c-0.1,0.4-0.6,0.6-1,0.6c0-0.1-0.1-0.3-0.1-0.4c-0.5,0.5,0.2,1.5,0,1.7l0.3-0.6
						c0.4,1.7-0.2,3.8,0.7,5.5l0.3-0.1c0.6,1.3-0.4,1-0.1,2.4l-0.1,0c0.3,0.3,0.5,0.6,0.5,1c-0.4-0.4-0.8,0.7-1.2,0.2
						c0.7,1.4,0.5,0.7,1.8,1.6l-0.6,0.2c0.5,0.3,0.8,0.3,0.9,1c-0.5-0.6-0.8,0.4-1.5-0.2c-1.2,1.5,1.2,2.2-0.5,2.8
						c1.5,0.7,0.8-1.3,1.2-0.9c0.5-0.3,1.1,0.5,1,1c0,0.5-2,0.8-1.9,2c0-0.1-0.1-0.1-0.1-0.2c-0.4,0.4,0.5,0.9-0.1,1.4
						c0.9,0.3-0.1,0.7,1.1,0.8l-0.3-1.1c0.3,0.6,1.7,1.2,1,2.2c-0.2-0.1-0.6-0.4-0.7-0.6c-0.3,0.3,0.2,0.6-0.1,0.9
						c-1.2-0.1-0.3-1.3-1.2-2c-0.5,0.3,0.9,1.2-0.4,0.9c1.6,0.5-0.2,1.2,1,1.9l-0.7-0.1c0.1,0.1,0.4,0.4,0.4,0.6l-0.9-0.4
						c0.8,0.6-0.7,1.2-0.3,1.8c0-1.3,0.9-0.3,1.4-0.8c0.9,1.6-1.9,0.9-1.5,2.7c-0.1-0.2,0.4-0.9,0.8-0.5c-0.1,0.3-0.4,0.8-0.8,1
						c0.1,1.2,0.7-0.2,1.2,0.3c-0.9,0.4,0.4,0.6,0.6,1.1l-0.7,0c-0.5,1.3,1.5,0.4,0.9,1.6l-1-0.5l0.3,0.6l-0.8-0.1
						c0.6,0.7,0.4,0.9,0.2,1.6c0.5-0.2,1.3,0.1,1.3,0.7c-0.4,0.4-0.7-0.2-0.6,0.6c-0.4-0.2-1-0.4-0.4-0.8c-0.2,0-0.4-0.2-0.7-0.2
						c-0.5,0.4-0.1,1.1-0.1,1.4c0-0.1,0.1-0.3,0.2-0.3l1,1.2c-0.3,0.2-0.5,0-0.7-0.1c0.1,0.2,0.4,0.4,0.5,0.8
						c-0.6-0.1-1.2-0.1-1.5-0.6l0.6,1.2c-0.3,0.1-0.7,0.6-0.9,0.4c-0.3,0.6,1.1,1.6,0.7,2.4c0.1,0,0.2,0.1,0.3,0.3
						c-0.1,0.8-0.8,1.5,0,2.5l-1,0.5c0.2,0.7,1.3-0.7,1.7,0.5c0.3,0.9-0.9,0.3-1.2,0.6c0.5,0.4,1.6,1.2,0.8,2
						C121.2,122.2,121.4,122,121.3,121.7z M121.8,130.9c-0.2-0.2-0.6-0.5-0.2-0.7C122.4,130.5,122,130.6,121.8,130.9z M123.5,144.9
						c-0.2-0.1-0.1-0.3,0.2-0.6C123.7,144.5,123.7,144.7,123.5,144.9z M128.5,183.9C128.5,183.9,128.5,183.9,128.5,183.9
						C128.7,183.5,128.6,183.6,128.5,183.9z M128.2,184.7c0.1,0.1,0.2,0.1,0.3,0c-0.2-0.1-0.2-0.2-0.1-0.5
						C128.2,184.4,128,184.5,128.2,184.7z M127.9,96l-0.2,0.2C127.5,95.8,127.7,95.9,127.9,96z"/>
					<path class="st1" d="M122.5,143.3c0.1,0,0.3-0.1,0.4-0.1C122.8,143.2,122.6,143.2,122.5,143.3z"/>
					<path class="st1" d="M120.9,116C120.9,116,120.9,116,120.9,116c0,0-0.1-0.1-0.1-0.1L120.9,116z"/>
					<path class="st1" d="M122.1,171.9c0.1-0.2,0.2-0.3,0.4-0.3C122.3,171.6,122.1,171.7,122.1,171.9z"/>
					<path class="st1" d="M129.4,189.1l-0.2-0.5c0,0.3-0.1,0.3-0.2,0.5C129.2,189,129.4,188.9,129.4,189.1z"/>
					<path class="st1" d="M125,193.7c0.1,0.1,0,0.2,0.1,0.2l0.3,0C125.4,193.6,125.1,193.3,125,193.7z"/>
					<path class="st1" d="M127,189.6c-0.6,0-0.4,0.4-0.3,0.7c0,0,0,0,0-0.1C127.6,190.4,127.3,190,127,189.6z"/>
					<path class="st1" d="M126.8,190.4c0,0.1,0,0.2,0,0.3C127.1,190.8,126.8,190.6,126.8,190.4z"/>
					<path class="st1" d="M128.6,185.8c-0.2,0.2,0.8,0.1,0.5,0.2C129.9,186.2,128.2,184.8,128.6,185.8z"/>
					<polygon class="st1" points="125,189.9 125.8,189.7 125.2,189.5 					"/>
					<path class="st1" d="M125.6,187l-0.2,0.6c0.1,0,0.2,0.1,0.3,0.2C125.7,187.3,125.8,186.9,125.6,187z"/>
					<path class="st1" d="M125.6,187.7c0,0.2,0,0.4,0.1,0.5C125.7,188.1,125.7,187.9,125.6,187.7z"/>
					<polygon class="st1" points="124.8,189.1 125,188.9 125,188.5 					"/>
					<path class="st1" d="M125.7,180.6l-0.2-0.6c-0.3-0.1-0.4,0.1-0.3,0.4C125.4,180.5,125.5,180.7,125.7,180.6z"/>
					<path class="st1" d="M123.7,182.5c0.2-0.2,0.3-0.2,0.6-0.3l-0.9,0L123.7,182.5z"/>
					<path class="st1" d="M123.5,180.7c-0.3-0.1-0.7-0.9-0.7-0.1C123,180.6,123.2,181.3,123.5,180.7z"/>
					<polygon class="st1" points="124.6,170.9 124.6,171.1 126.2,171.1 					"/>
					<path class="st1" d="M121,162.3c-0.4,0.8,0.9,0.2,0.5,0.9c0.4,0.2,0.4-0.6,0.7-0.4C121.8,162.4,122,162.1,121,162.3z"/>
					<path class="st1" d="M122.2,162.8c0.1,0.1,0.1,0.2,0.2,0.2C122.3,162.9,122.2,162.9,122.2,162.8z"/>
					<polygon class="st1" points="128.7,66 129,65.5 128.5,65.8 					"/>
					<path class="st1" d="M127.5,65l1-0.1l-0.9-0.3C127.7,64.7,127.8,64.9,127.5,65z"/>
					<path class="st1" d="M119.8,132.3l0.2,0c0.3-0.1,0.3-0.2,0.3-0.4L119.8,132.3z"/>
					<polygon class="st1" points="120.5,125.6 120.5,125.7 121.4,125.5 					"/>
					<path class="st1" d="M119.4,120c0,0.2,0.2,0.5,0.1,0.7C119.4,120.3,120.5,120,119.4,120z"/>
				</g>
			</g>
		</g>
	</g>
</g>
<g>
	<g>
		<g>
			<g>
				<g>
					<path class="st1" d="M168.9,61.5c0.1-0.2-0.6-0.1-0.7-0.2C168.3,61.7,169,61.5,168.9,61.5z"/>
					<polygon class="st1" points="170.3,65.1 170,65 170.7,65.6 					"/>
					<path class="st1" d="M170.3,68.5c1.1-0.3-0.2-1.2,0.2-1.8l0.2-0.1l-0.9-0.3C170,67,170.6,68,170.3,68.5z"/>
					<path class="st1" d="M168,70.3c0.4-0.1,0.4,0.4,0.1-0.4c0,0-0.1,0.1-0.1,0.1C168,70,168,70.1,168,70.3z"/>
					<path class="st1" d="M168,69.9C168,69.6,167.7,70.2,168,69.9L168,69.9z"/>
					<path class="st1" d="M168.2,71.6l-0.4-0.5c-0.2,0.1-0.3,0.5-0.5,0.4C167.6,71.9,167.8,71.8,168.2,71.6z"/>
					<path class="st1" d="M169,72l-0.2-0.2C168.8,71.8,168.7,71.9,169,72z"/>
					<path class="st1" d="M168.5,71.3l0.3,0.5c0.2-0.1,0.5-0.1-0.1-0.2C169.1,71.6,168.7,71.5,168.5,71.3z"/>
					<path class="st1" d="M168.7,71c0.2-0.3,0.4-0.6,0.7-0.1C169.3,69.9,168.5,70.1,168.7,71z"/>
					<path class="st1" d="M171.4,68.6l0.3-0.4l-0.4-0.3C171.5,68.1,171,68.7,171.4,68.6z"/>
					<path class="st1" d="M167.7,74.5c0.2,0,0.6-0.2,0.9-0.2l-0.3-0.3C168.2,74.1,168,74.5,167.7,74.5z"/>
					<path class="st1" d="M168.6,74.3l0.4,0.5C169,74.4,168.8,74.3,168.6,74.3z"/>
					<polygon class="st1" points="170.2,72.1 169.4,71.3 170.2,72.3 					"/>
					<polygon class="st1" points="167.7,76.5 167.1,76.2 167.9,76.7 					"/>
					<path class="st1" d="M167.7,77.8c-0.4-0.2-0.7,0.3-1,0.1c0.1,0.4,0.4,0.7,0.8,0.9C167.3,78.5,167.4,78.2,167.7,77.8z"/>
					<path class="st1" d="M168,79.3c-0.1-0.1-0.3-0.3-0.5-0.5C167.6,79,167.8,79.1,168,79.3z"/>
					<path class="st1" d="M168.9,75.7c-0.1,0-0.5,0.1-0.6,0.4l0.6-0.2C168.8,75.9,168.9,75.8,168.9,75.7z"/>
					<path class="st1" d="M168.9,75.9L168.9,75.9c0,0.2-0.1,0.4-0.1,0.4C168.8,76.3,168.8,76.2,168.9,75.9z"/>
					<path class="st1" d="M168.9,75.7C168.9,75.7,168.9,75.7,168.9,75.7C168.9,75.7,168.9,75.7,168.9,75.7z"/>
					<path class="st1" d="M169.6,73.5c0.4,0.3,0.7,0.9,1.3,0.3C170.5,73.6,170.2,73.9,169.6,73.5z"/>
					<path class="st1" d="M169.7,75.4l0.1-0.5c-0.2,0-0.4,0.1-0.6,0L169.7,75.4z"/>
					<polygon class="st1" points="169.9,75.7 169.7,75.4 169.6,75.6 					"/>
					<path class="st1" d="M168.6,78.3c0.3,0.2,0.3,0.5,0.3,0.8c0.1-0.3,0.2-0.6,0.2-1C169,78.1,168.6,78,168.6,78.3z"/>
					<path class="st1" d="M168.8,77.1C168.8,77.2,168.8,77.2,168.8,77.1C168.9,77.2,168.9,77.1,168.8,77.1z"/>
					<path class="st1" d="M169,82c0,0,0.1,0,0.1,0C169,82,169,82,169,82L169,82z"/>
					<path class="st1" d="M169.3,78.1c0.1-0.2,0-0.4-0.2-0.5c0.1,0.2,0.1,0.4,0.1,0.6C169.2,78.2,169.3,78.2,169.3,78.1z"/>
					<path class="st1" d="M168.3,80.1c0.1-0.1,0.2-0.3,0.3-0.4C168.5,79.8,168.2,80,168.3,80.1z"/>
					<path class="st1" d="M168.7,77.3C168.6,77.3,168.6,77.3,168.7,77.3C168.5,77.3,168.6,77.3,168.7,77.3z"/>
					<path class="st1" d="M168.7,77.3c0.1,0.1,0.2,0.2,0.4,0.3c-0.1-0.1-0.1-0.3-0.2-0.4C168.8,77.2,168.7,77.3,168.7,77.3z"/>
					<path class="st1" d="M173,82.9c-0.6,0-1.1-0.7-0.5-1.2c-0.4-0.5-2.4-0.2-3.5,0.3c0.3,0,0.5,0,0.8,0.6c0.3-0.2,0.8-1.2,1.3-0.7
						c0.3,0.7-0.2,0.6-0.5,0.9c0.7-0.3,1.1,0.9,2.2,0.8l-0.4-0.6C172.6,82.8,172.9,83.1,173,82.9z"/>
					<path class="st1" d="M169.1,80.9l-0.1-0.2c-0.1,0.3-0.3,0.4-0.8,0.8c0.3,0.4,0.5,0.5,0.7,0.5L169.1,80.9L169.1,80.9z"/>
					<path class="st1" d="M169.1,79.7c0.6,0.2,0.9,0.7,1.6,0.4c0-0.7-0.5-0.5-0.8-0.9C170,80.3,169.5,78.9,169.1,79.7
						c0-0.2-0.1-0.4-0.1-0.6c-0.1,0.2-0.2,0.4-0.3,0.5c0,0,0,0,0,0l0,0c0,0,0,0,0,0c0.1,0,0.1-0.1,0.1,0c0,0,0,0,0,0
						C168.9,79.7,169,79.7,169.1,79.7c-0.1,0.3-0.2,0-0.2,0c0,0-0.1,0-0.1,0c0,0,0,0,0,0l0.4,1.1C169.1,80.5,169.1,80.2,169.1,79.7z
						"/>
					<path class="st1" d="M172.3,74.4c-0.1,0-0.1,0-0.1,0C172.2,74.5,172.3,74.5,172.3,74.4z"/>
					<path class="st1" d="M171.9,74.8c-0.1-0.1-0.3-0.1-0.3-0.4c0.2-0.2,0.3,0,0.5,0c-0.2-0.2-0.5-0.5-0.8-0.1l0.1,0.1
						c-0.2,0.4-1,1-1.1,0.9C170.9,75.2,171.3,75.1,171.9,74.8z"/>
					<path class="st1" d="M170.6,77.3l0.3,0.9l0.6-0.5l-0.3,0C171.3,77.2,170.9,77.3,170.6,77.3z"/>
					<polygon class="st1" points="168.6,82.1 168,82 168.9,82.5 					"/>
					<polygon class="st1" points="168.7,83.3 168.1,83.2 168.5,83.5 					"/>
					<path class="st1" d="M176,148.2l0.2,0.3C176.2,148.3,176.1,148.3,176,148.2z"/>
					<path class="st1" d="M176.1,146.3l-0.3,0C175.9,146.4,176.1,146.4,176.1,146.3z"/>
					<path class="st1" d="M168.8,111.5c-0.6,0.4-1.4,0.8-0.7,0.8l0.6-0.1C168.6,111.9,168.6,111.7,168.8,111.5z"/>
					<path class="st1" d="M172.6,130.9c0.1,0,0.1-0.1,0.2-0.1c-0.2-0.1-0.4-0.2-0.6-0.3C172.4,130.6,172.5,130.8,172.6,130.9z"/>
					<path class="st1" d="M175.3,131.1l-0.4,0.5C175,131.5,175.2,131.4,175.3,131.1z"/>
					<path class="st1" d="M176.7,158.5l0.7,0.3C177.4,158.3,177,158.5,176.7,158.5z"/>
					<path class="st1" d="M169,95c-0.3,0.3-0.4,0.6-0.4,0.8C168.9,95.5,169.5,95.2,169,95z"/>
					<path class="st1" d="M169.2,147.5c0.1,0.2,0.2,0.2,0.4,0.2C169.5,147.5,169.3,147.4,169.2,147.5z"/>
					<path class="st1" d="M168.6,96.8c0.1-0.1,0.1-0.1,0.2-0.2c-0.1-0.2-0.2-0.5-0.2-0.8C168.3,96.2,168.1,96.5,168.6,96.8z"/>
					<path class="st1" d="M176.2,195.8C176.2,195.8,176.1,195.9,176.2,195.8C176.2,195.9,176.2,195.9,176.2,195.8z"/>
					<path class="st1" d="M169.7,206.7c0-0.1,0-0.3-0.1-0.4C169.6,206.3,169.6,206.4,169.7,206.7z"/>
					<path class="st1" d="M168.4,87.9C168.4,87.6,168.4,87.9,168.4,87.9L168.4,87.9z"/>
					<path class="st1" d="M171,86.7c0.1,0.1,0.2,0.1,0.3,0.1C171.2,86.8,171.1,86.7,171,86.7z"/>
					<path class="st1" d="M172.6,99.2C172.6,99.2,172.6,99.3,172.6,99.2C172.7,99.2,172.7,99.2,172.6,99.2z"/>
					<path class="st1" d="M168.7,87.5c-0.1,0.1-0.1,0.2-0.2,0.3C168.6,87.8,168.7,87.7,168.7,87.5z"/>
					<path class="st1" d="M168.4,87.6c0-0.1,0-0.2,0.1-0.2C168.4,87.3,168.3,87.4,168.4,87.6z"/>
					<path class="st1" d="M168.5,88.2c0-0.1,0-0.3,0.1-0.4c0,0-0.1,0.1-0.1,0.1C168.4,88,168.5,88.1,168.5,88.2z"/>
					<path class="st1" d="M174.5,175.8C174.4,175.8,174.4,175.8,174.5,175.8C174.7,176.1,174.6,176,174.5,175.8z"/>
					<path class="st1" d="M175.5,117.9C175.5,117.9,175.5,117.9,175.5,117.9C175.5,117.9,175.5,117.9,175.5,117.9L175.5,117.9z"/>
					<path class="st1" d="M176,118.8c-0.8-0.4-0.7-0.6-0.5-0.9l-1.9,0.3L176,118.8z"/>
					<path class="st1" d="M176.2,152.7l0.6-0.6c1,0.7,0.6,1.3,1.4,0.7c-2-0.1-0.2-2.4-2.2-2.5l0.4-0.4c0,0.1,0.1,0.1,0.1,0.2
						c1-0.8-1.5-0.6-1.2-1.6c0.2-0.4,0.4-0.6,0.7-0.4l-0.5-0.8c0-0.2,0.4-0.2,0.4,0.1l-0.2-1.2l0.1,0c-0.3-0.2-0.8-0.6-1-0.8
						c0.3-0.3,0.2,0.2,0.5,0.1l-0.5-0.7c0.5-0.3,1,0.3,1,0.7c2-0.6-0.5-0.6,0.7-1.9l0.3,0.6c1.1-0.4,0.7-0.9,1.4-1.6
						c-0.4,0.2-1.8,1.4-2.3,0.7c0.2-0.2,0.2-0.5-0.2-0.9c0.7,0,0.5-0.4,0.5-0.9l1,0c-0.3-0.5-0.8-0.5-1.2-0.8
						c0.1-0.6,0.8-0.7,1.5-0.8c0.2-0.9-1.2,0.6-1.4-0.5c0.4-0.8,0-1.3-0.6-2.2c0.3-0.5,0.6,0.1,0.9-0.1l-0.8-0.5
						c0-0.1,0.3-0.1,0.4-0.1c-0.3-0.4-1,0-1.2-0.7c-1-0.2,1.5-1.3,0.3-2.1c0.3-0.2,0.6,0.1,1,0c-0.8-1.1-0.6-0.9-1.6-1.8l0.6-0.7
						c-0.7,0.5-1.6-0.2-2.3-0.8c-0.3,0.2-0.6,0.4-0.8,0.5l-0.5-1c0.2-0.1,0.5,0,0.9,0.1c-0.1-0.1-0.2-0.1-0.2-0.2
						c0.4-0.4,0.9-0.2,1.4,0.1c-0.2,0.1-0.4,0.2-0.6,0.4c0.6,0.2,1.2,0.5,1.8,0.4c-0.1-0.1-0.2-0.2-0.3-0.3c0.2,0.1,0.3,0.1,0.4,0.1
						c0.1,0-0.1-0.1-0.4-0.3l1.1-0.2l-0.4-0.1l0.7-1.3c-1.1-0.9-2.6-1.7-3.1-3.2c0.8,0.4,1.3,0.1,2.2,0.1c-1,0.4,0.4,1.1,0.2,1.9
						c0.1-0.4,0.5-0.3,0.7-0.2l-0.9-1.3c0.8,0,0.6-0.3,0.9-0.6c-1.5,0.3-1-1-1.5-1.6c0.5,0,1,0.1,0.9,0.8c1.1-0.7-1.8-1-0.8-1.7
						c0,0.2-0.1,0.3,0.2,0.3c-0.4-0.4-0.1-1.3,0.3-1.1l0,0.2c0.2-1.1,0-3.3-1.3-3.5c0.2,0,1.5,0.1,1.8,0.2l-4.3-1.9
						c1.1,0.2,3.7-0.5,4.3,0.4c0.2-0.3,0.3-0.6,0-1.1c-0.2,0.2-1.6,0.4-1.7,0.2c1.2-0.7,0.6-0.5,1.7-1.3c-0.2,0.3-1.9,0-1.9-0.4
						c0.3,0.1,1.7,0,1.9,0.1l-1.7-1c0.3,0.3,1.4,0,1.9-0.2c-0.3,0.1,0-0.9-0.1-1.2l-0.4,0.4c0.3-1.2-2.4-1.2-2.3-2.3
						c0.3,0.1,2.1,0.3,2.3-0.2c-0.9-0.3-4.1-1.2-4.8-2.2l0.5-0.2l-0.6-0.8c1.3,0.5,4,1.9,5.1,2.6c0.4-0.4,0.6-0.1,0.5-0.8
						c0.5-0.2,0.7,0.4,0.7,0.5l0.3-1.5c-1,0.1-1-1.2-1.8-1.1l1,1.7c-1,0.1-2.8-1-2.7-2c0.4-0.3,1.8,0.2,2.1,0.2
						c-0.3-0.1-0.7-1-0.4-1.1l0.5,0.5c0.4-0.6-1.3-1-0.4-1.7c0.1-0.2,1.3-0.7,0.7-0.8c-1.1,0.4-4.7,0.5-5.5,0.2
						c0.1-0.1,1.1-1.3,1.7-1.6c0.9-0.4,2.1,0.6,2.9,0.3c-0.3,0-0.6-0.2-0.7-0.3c0.2-0.3,0.8,0.1,0.7-0.5c-1-0.1,0.1-1.2-0.9-0.3
						c-0.3-0.6,0.2-0.6,0.2-1.3c-0.7,0.2-2.2-0.6-2.5-1.1c0.3,0,0.6-0.1,0.7-0.2c0.1-1.1,0.6-1.8,0.6-2.8c0.2-0.1,0.5-0.6,1-0.4
						c-0.2-0.2-0.5-0.3-0.5-0.6c0.9-0.6,0.1,0.7,1.2,0.2c-0.6,0-0.8-0.9-1.2-1.3c-0.9,0.1-0.2,1.1,0.2,1.6c-1.3,0-2.6-0.8-3.2-1.9
						c-0.3-0.9,0.8-0.4,0.6-0.5c0.2-1.7-2.2-1.4-1.3-2.8c0.8-0.5,1.6,0,2.2-0.1c0.3,0.7-0.5,1.1-0.5,1.6l0.4-0.6
						c0.3,0.2,0.5,0.7,0.2,1c0.7-0.5,0.1-2.8,0.8-4.1c-0.3-0.2-0.5-0.6-0.9-0.4l0.1,0.4c-0.6,0.4-0.9-0.8-1.2-0.3
						c-0.5-0.5-1.2-1.2-0.8-1.9l0.9-0.1c-0.3,0-0.5,0.5-0.3,0.7c-0.4-0.3,1.2-1.2,0-1.5l-0.6,0.5c-0.5-0.5-1.4-1.2-1.1-1.9
						c-0.9,0.3,0.1,0.2-1,0.6c1.3-0.4-0.1,1.7,1.3,1.1c-1.2,0.5-0.5,0.9-1.6,1.5c0.3,0,0.6-0.2,0.4,0.3c0.1,0,0.2,0.1,0.3,0.1
						c0,0,0,0,0,0c0,0,0,0,0,0c0,0,0.1,0,0,0c0.1-0.1,0.3-0.2,0.5-0.3c0.7,0.3,0.7,1.2,1,1.5c-0.1,0.3-0.3-0.1-0.7,0l0.5,0.5
						c-0.7,0-1.1,0.9-1.5,0.1l0,0.7c-0.4,0.4-0.5,1-0.2,1.4c-0.1,0.3,0.7,0.9,0.2,0.6l0.4,1.1l-0.2,0c-0.1,1.1,1.1,2.3-0.1,3.6
						c0.2,0.4,0.4,0.8,0.2,1.4l-0.6,0.1c0.2,0.5-0.6,1.4,0,1.6c-1.6,0.5-0.3,2.3-0.6,3.2l0.8,0c0,0.6,0.2,1.1,0.5,1.9l0.7,0
						c0.5,0.6-0.5,1.6-0.4,2.6c-0.3-0.1-0.2-0.3,0-0.5c-1.5,1.2,1.1,2.5,0,3.6c0.2,0.3,0.2,0.5,0,0.6c0,0,0,0,0-0.1c0,0,0,0.1,0,0.1
						c-0.1,0.1-0.2,0.2-0.4,0.4c0.2-0.1,0.3-0.2,0.4-0.3c0,0.2,0.1,0.5,0.3,0.8l-0.7,0.1c0,0,0,0,0,0.1c-0.3,0.3,0.3,0.2,0.9,0.1
						c0.1,0.2,0.3,0.3,0.4,0.4c-1.2,0.2,0.4,0.8-0.8,1.1c0.6,0.2,0.5,1.5,1.7,1.7c-0.2,0-0.2,0.1-0.3-0.1c-0.1,0.3-0.3,0.7,0.1,1
						l-0.9,0.1l1.2,0.7c-0.6,0.5-0.9,0.6-1.6,0.2c1.1,1.1,0.4,0.9,1.5,1.8l-0.6,0c0,0.3,0.8,0.9,0.3,1.1c-1.1,0.7-0.2,3.6-1.2,5.5
						c1.7-0.4-0.8,0.9,0.6,1c-0.4,0.1-0.6,0.4-1,0.1c0.4,1-0.7,1.4,0.5,2.1c-0.4,0.1-0.6-0.2-0.8-0.1c0.1,0.1,0.4,0.3,0.1,0.4
						c-0.2,0.1-0.3-0.1-0.5-0.3c0.1,1,1.3,1.1,2.5,1.2c-0.6,0.5-0.5,0.7,0.3,1.1c-0.4,0.2-0.8,0.5-0.9-0.1c-0.1,0.3-0.6,2.1,0.4,2.1
						c-0.2,0.1-0.1,0.5,0,0.6c-0.1,0.8-0.1,0.8-0.1,1.6l0.2-0.2c1.2,0.3,0.3,0.6,0.4,1.2l-0.1,0c-0.8,1.4,0.4,0.6-0.5,2l0.7-0.1
						c1.5,0.1-0.9,1.2-0.3,2l0.4-0.3c0.5,0.4-2.1,1.2-2.3,1.7c-0.1,0.1-0.2-0.2-0.3-0.3c-0.9,1.2,0.9,0.2,1.2,1
						c-0.5,0.2-1.3-0.2-1.4,0.4c-0.4,0.3,1.6,1.7,0.7,2.5c0.4-0.2,0.8-0.3,1.1,0.1c0.1,0.6-1.5,1.7-0.2,2.2
						c-0.1,0.1-0.2,0.1-0.3,0.1c0.3,0.5,0.5,1.5,1.2,1.8c-2.5,0.4,1.2,2.9-1.1,2.9l0.1,1.4l-0.2,0c-0.2,0.9,0.4,1.2,0.9,1.6
						c-0.2,0.2-0.4,0.1-0.5,0c-0.5,1.3-0.4,1.5,0.8,2.6l-0.7,0.1c0.4,0.3-1.2,1.9-0.3,3.3c-0.1,0-0.2,0-0.3-0.1
						c0.9,1.5-2.1,3.5,0.6,4.1l0.7,1c0.2-1.3,1.2,0.2,1.6-0.3c0.2,0.5-0.8,1.3-1,0.7l0.1-0.1c-1.4-0.2-0.5,1.6-1.5,1.5
						c0.1,2.5-0.7,4.9-0.8,7.2l1.1-0.3l-0.1,0.8c-0.3,0.2-0.9,0.3-0.8-0.3c-0.6,0.3,0.5,1,0.8,1c-0.4,1.1-1.3-0.4-1.3-0.1l0.1,0.5
						l0.1-0.1c0.4,0.4,0.9,0.4,0.9,1.1c-0.2,0.4-0.7,0.2-0.7,0.4c-0.1,0-0.1,0.1,0,0.3l-0.1,1l0.9-0.4c0.4,0.5,0,1,0.9,0.5
						c-1.5,0.7-0.5,3.8-1,4.2c0.6,0.6,0.6,1.3,0.5,2c0.2-0.2,1.1-0.3,1,0.4c-2-0.2-0.9,1.2-2.3,1.8c1-0.5,0.2,1.9,1.6,1.1
						c-0.2,0.6-0.7,0-1.2,0.5c0.8,1.3-0.5,2.9-0.2,4.6c0.3,0,0.7-0.2,1.1,0.1l-1.3,0.9c0.1,0.3,1.5,0.3,0.6,0.9
						c0.2-0.1,0.6-0.2,0.6,0c-1.3,3.2,1,6.6-1.4,9.9c0.5-0.4,0.6-0.1,0.6,0.2c0.1-0.2,0.6,0,1,0l-1,1.4c1,0.2,0.1,1.5,1,1.6
						l-0.2-0.4c1.1,0.6,2.5-0.8,3.9-0.7c-1.3-0.6,1.9-1.7,0.1-2.8c0.3-0.2,0.5,0.2,0.8,0.1c-0.6-0.3-0.7-0.6-0.5-1.2l0.2,0.1
						c-0.1-1.7,0.5-2.4,0.9-4.3l-0.7,0.1c0.1-0.4,0.3-0.5,0.5-0.7c-1.1-0.5-0.1,1.1-1.2,0.7c1.4-0.5,0-2.9,1.7-3.2
						c0-0.6-0.8,0.2-0.8-0.4l0.4-0.2L175,196c0.1-0.4,0.6-0.6,1-0.6c0,0.1,0.1,0.3,0.1,0.4c0.5-0.5-0.2-1.5,0-1.7l-0.3,0.6
						c-0.4-1.7,0.2-3.8-0.7-5.5l-0.3,0.1c-0.6-1.3,0.4-1,0.1-2.4l0.1,0c-0.3-0.3-0.5-0.6-0.5-1c0.4,0.4,0.8-0.7,1.2-0.2
						c-0.7-1.4-0.5-0.7-1.8-1.6l0.6-0.2c-0.5-0.3-0.8-0.3-0.9-1c0.5,0.6,0.8-0.4,1.5,0.2c1.2-1.5-1.2-2.2,0.5-2.8
						c-1.5-0.7-0.8,1.3-1.2,0.9c-0.5,0.3-1.1-0.5-1-1c0-0.5,2-0.8,1.9-2c0,0.1,0.1,0.1,0.1,0.2c0.4-0.4-0.5-0.9,0.1-1.4
						c-0.9-0.3,0.1-0.7-1.1-0.8l0.3,1.1c-0.3-0.6-1.7-1.2-1-2.2c0.2,0.1,0.6,0.4,0.7,0.6c0.3-0.3-0.2-0.6,0.1-0.9
						c1.2,0.1,0.3,1.3,1.2,2c0.5-0.3-0.9-1.2,0.4-0.9c-1.6-0.5,0.2-1.2-1-1.9l0.7,0.1c-0.1-0.1-0.4-0.4-0.4-0.6l0.9,0.4
						c-0.8-0.6,0.7-1.2,0.3-1.8c0,1.3-0.9,0.3-1.4,0.8c-0.9-1.6,1.9-0.9,1.5-2.7c0.1,0.2-0.4,0.9-0.8,0.5c0.1-0.3,0.4-0.8,0.8-1
						c-0.1-1.2-0.7,0.2-1.2-0.3c0.9-0.4-0.4-0.6-0.6-1.1l0.7,0c0.5-1.3-1.5-0.4-0.9-1.6l1,0.5l-0.3-0.6l0.8,0.1
						c-0.6-0.7-0.5-0.9-0.2-1.6c-0.5,0.2-1.3-0.1-1.3-0.7c0.4-0.4,0.7,0.2,0.6-0.6c0.4,0.2,1,0.4,0.4,0.8c0.2,0,0.4,0.2,0.7,0.2
						c0.5-0.4,0.1-1.1,0.1-1.4c0,0.1-0.1,0.3-0.2,0.3l-1-1.2c0.3-0.2,0.5,0,0.7,0.1c-0.1-0.2-0.4-0.4-0.5-0.8
						c0.6,0.1,1.2,0.1,1.5,0.6l-0.6-1.2c0.3-0.1,0.7-0.6,0.9-0.4c0.3-0.6-1.1-1.6-0.7-2.4c-0.1,0-0.2-0.1-0.3-0.3
						c0.1-0.8,0.8-1.5,0-2.5l1-0.5c-0.2-0.7-1.3,0.7-1.7-0.5c-0.3-0.9,0.9-0.3,1.2-0.6c-0.5-0.4-1.6-1.2-0.8-2
						C176.3,152.3,176.1,152.5,176.2,152.7z M175.8,143.5c0.2,0.2,0.6,0.5,0.2,0.7C175.1,144,175.5,143.8,175.8,143.5z M174,129.5
						c0.2,0.1,0.1,0.3-0.2,0.6C173.8,129.9,173.8,129.7,174,129.5z M169,90.6C169,90.6,169,90.6,169,90.6
						C168.8,91,168.9,90.8,169,90.6z M169.3,89.7c-0.1-0.1-0.2-0.1-0.3,0c0.2,0.1,0.2,0.2,0.1,0.5C169.4,90.1,169.5,90,169.3,89.7z
						 M169.6,178.4l0.2-0.2C170,178.6,169.8,178.5,169.6,178.4z"/>
					<path class="st1" d="M175,131.1c-0.1,0-0.3,0.1-0.4,0.1C174.7,131.3,174.9,131.3,175,131.1z"/>
					<path class="st1" d="M176.6,158.4C176.6,158.4,176.6,158.5,176.6,158.4c0,0,0.1,0.1,0.1,0.1L176.6,158.4z"/>
					<path class="st1" d="M175.4,102.5c-0.1,0.2-0.2,0.3-0.4,0.3C175.2,102.9,175.4,102.8,175.4,102.5z"/>
					<path class="st1" d="M168.1,85.4l0.2,0.5c0-0.3,0.1-0.3,0.2-0.5C168.4,85.4,168.1,85.5,168.1,85.4z"/>
					<path class="st1" d="M172.6,80.8c-0.1-0.1,0-0.2-0.1-0.2l-0.3,0C172.2,80.9,172.4,81.1,172.6,80.8z"/>
					<path class="st1" d="M170.5,84.9c0.6,0,0.4-0.4,0.3-0.7c0,0,0,0,0,0.1C169.9,84.1,170.2,84.5,170.5,84.9z"/>
					<path class="st1" d="M170.8,84c0-0.1,0-0.2,0-0.3C170.4,83.7,170.7,83.8,170.8,84z"/>
					<path class="st1" d="M168.9,88.7c0.2-0.2-0.8-0.1-0.5-0.2C167.6,88.3,169.3,89.7,168.9,88.7z"/>
					<polygon class="st1" points="172.5,84.6 171.7,84.7 172.3,84.9 					"/>
					<path class="st1" d="M171.9,87.5l0.2-0.6c-0.1,0-0.2-0.1-0.3-0.2C171.9,87.1,171.7,87.5,171.9,87.5z"/>
					<path class="st1" d="M171.9,86.7c0-0.2,0-0.4-0.1-0.5C171.8,86.4,171.8,86.6,171.9,86.7z"/>
					<polygon class="st1" points="172.7,85.4 172.6,85.6 172.5,86 					"/>
					<path class="st1" d="M171.8,93.9l0.2,0.6c0.3,0.1,0.4-0.1,0.3-0.4C172.1,94,172,93.8,171.8,93.9z"/>
					<path class="st1" d="M173.8,91.9c-0.2,0.2-0.3,0.2-0.6,0.3l0.9,0L173.8,91.9z"/>
					<path class="st1" d="M174.1,93.8c0.3,0.1,0.7,0.9,0.7,0.1C174.5,93.8,174.3,93.2,174.1,93.8z"/>
					<polygon class="st1" points="172.9,103.5 172.9,103.4 171.4,103.4 					"/>
					<path class="st1" d="M176.5,112.1c0.4-0.8-0.9-0.2-0.5-0.9c-0.4-0.2-0.4,0.6-0.7,0.4C175.7,112.1,175.5,112.3,176.5,112.1z"/>
					<path class="st1" d="M175.4,111.6c-0.1-0.1-0.1-0.2-0.2-0.2C175.2,111.5,175.3,111.6,175.4,111.6z"/>
					<polygon class="st1" points="168.8,208.5 168.5,209 169,208.7 					"/>
					<path class="st1" d="M170,209.4l-1,0.1l0.9,0.3C169.8,209.7,169.8,209.5,170,209.4z"/>
					<path class="st1" d="M177.7,142.1l-0.2,0c-0.3,0.1-0.3,0.2-0.3,0.4L177.7,142.1z"/>
					<polygon class="st1" points="177,148.8 177,148.7 176.1,148.9 					"/>
					<path class="st1" d="M178.1,154.4c0-0.2-0.2-0.5-0.1-0.7C178.1,154.2,177,154.5,178.1,154.4z"/>
				</g>
			</g>
		</g>
	</g>
</g>
<g>
	<g>
		<g>
			<g>
				<g>
					<path class="st1" d="M76.2,114.5c-0.2-0.1-0.1,0.7-0.2,0.8C76.4,115.2,76.2,114.3,76.2,114.5z"/>
					<polygon class="st1" points="79.6,112.8 79.6,113.1 80.1,112.4 					"/>
					<path class="st1" d="M82.8,112.9c-0.3-1.3-1.2,0.2-1.7-0.2l-0.1-0.3l-0.3,1C81.4,113.2,82.3,112.5,82.8,112.9z"/>
					<path class="st1" d="M84.5,115.6c-0.1-0.5,0.4-0.4-0.4-0.2c0,0.1,0.1,0.1,0.1,0.1C84.3,115.5,84.4,115.5,84.5,115.6z"/>
					<path class="st1" d="M84.2,115.5C83.9,115.6,84.4,115.9,84.2,115.5L84.2,115.5z"/>
					<path class="st1" d="M85.8,115.3l-0.4,0.4c0.1,0.3,0.5,0.4,0.3,0.6C86.1,116,86,115.7,85.8,115.3z"/>
					<path class="st1" d="M86.2,114.3l-0.2,0.2C86,114.6,86.1,114.7,86.2,114.3z"/>
					<path class="st1" d="M85.5,114.9l0.5-0.4c-0.1-0.2-0.1-0.6-0.2,0.1C85.8,114.3,85.7,114.7,85.5,114.9z"/>
					<path class="st1" d="M85.2,114.7c-0.3-0.3-0.6-0.4-0.1-0.9C84.2,114,84.3,114.9,85.2,114.7z"/>
					<path class="st1" d="M83,111.6l-0.3-0.4l-0.3,0.4C82.5,111.4,83,112,83,111.6z"/>
					<path class="st1" d="M88.6,115.9c0-0.3-0.1-0.7-0.2-1.1l-0.3,0.3C88.2,115.3,88.5,115.5,88.6,115.9z"/>
					<path class="st1" d="M88.4,114.9l0.5-0.5C88.4,114.3,88.3,114.6,88.4,114.9z"/>
					<polygon class="st1" points="86.3,113 85.5,113.9 86.4,112.9 					"/>
					<polygon class="st1" points="90.4,115.9 90.2,116.6 90.6,115.6 					"/>
					<path class="st1" d="M91.7,115.8c-0.2,0.5,0.3,0.9,0.1,1.2c0.3-0.1,0.6-0.5,0.9-0.9C92.4,116.3,92.1,116.2,91.7,115.8z"/>
					<path class="st1" d="M93.1,115.5c-0.1,0.1-0.3,0.3-0.4,0.6C92.8,116,92.9,115.8,93.1,115.5z"/>
					<path class="st1" d="M89.7,114.5c0,0.2,0.1,0.6,0.4,0.8l-0.2-0.7C89.8,114.5,89.8,114.5,89.7,114.5z"/>
					<path class="st1" d="M89.9,114.5L89.9,114.5c0.2,0,0.4,0.1,0.4,0.1C90.3,114.6,90.1,114.6,89.9,114.5z"/>
					<path class="st1" d="M89.7,114.5C89.7,114.5,89.7,114.5,89.7,114.5C89.7,114.5,89.7,114.4,89.7,114.5z"/>
					<path class="st1" d="M87.6,113.6c0.3-0.4,0.9-0.9,0.3-1.5C87.7,112.6,88,113,87.6,113.6z"/>
					<path class="st1" d="M89.4,113.6l-0.5-0.2c0,0.2,0.1,0.5,0,0.7L89.4,113.6z"/>
					<polygon class="st1" points="89.7,113.4 89.4,113.6 89.6,113.7 					"/>
					<path class="st1" d="M92.2,114.8c0.2-0.3,0.5-0.4,0.8-0.4c-0.3-0.1-0.6-0.2-0.9-0.2C92,114.4,91.9,114.8,92.2,114.8z"/>
					<path class="st1" d="M91.1,114.6C91.1,114.6,91.1,114.6,91.1,114.6C91.1,114.5,91.1,114.5,91.1,114.6z"/>
					<path class="st1" d="M95.7,114.4c0,0,0-0.1,0-0.1C95.6,114.3,95.6,114.4,95.7,114.4L95.7,114.4z"/>
					<path class="st1" d="M92,114c-0.2-0.1-0.4,0-0.5,0.3c0.2-0.1,0.3-0.1,0.5-0.1C92,114.1,92,114,92,114z"/>
					<path class="st1" d="M93.8,115.2c-0.1-0.2-0.3-0.3-0.4-0.4C93.6,115,93.8,115.4,93.8,115.2z"/>
					<path class="st1" d="M91.2,114.8C91.2,114.8,91.2,114.8,91.2,114.8C91.2,115,91.2,114.9,91.2,114.8z"/>
					<path class="st1" d="M91.2,114.8c0.1-0.1,0.2-0.3,0.3-0.5c-0.1,0.1-0.3,0.1-0.4,0.2C91.1,114.6,91.2,114.7,91.2,114.8z"/>
					<path class="st1" d="M96.5,109.6c0,0.7-0.6,1.3-1.1,0.6c-0.5,0.5-0.2,2.8,0.3,4.1c0-0.3,0-0.6,0.5-1c-0.2-0.4-1.1-0.9-0.7-1.5
						c0.7-0.4,0.6,0.2,0.9,0.6c-0.3-0.9,0.9-1.3,0.7-2.5l-0.6,0.4C96.5,110.1,96.7,109.8,96.5,109.6z"/>
					<path class="st1" d="M94.6,114.2l-0.2,0.1c0.2,0.1,0.4,0.4,0.7,0.9c0.4-0.3,0.4-0.6,0.5-0.8l-1-0.1L94.6,114.2z"/>
					<path class="st1" d="M93.5,114.3c0.2-0.8,0.7-1.1,0.4-1.9c-0.6,0.1-0.4,0.6-0.8,1C94,113.2,92.7,113.8,93.5,114.3
						c-0.2,0-0.4,0.1-0.6,0.1c0.2,0.1,0.4,0.2,0.5,0.3c0,0,0,0,0,0l0,0c0,0,0,0,0,0c0-0.1-0.1-0.2,0-0.1c0,0,0,0,0,0
						C93.4,114.5,93.5,114.4,93.5,114.3c0.3,0.2,0,0.2-0.1,0.3c0,0,0,0.1,0,0.1c0,0,0,0,0,0l1-0.4C94.2,114.2,94,114.2,93.5,114.3z"
						/>
					<path class="st1" d="M88.4,110.5c0,0.1,0,0.1,0,0.2C88.5,110.6,88.5,110.5,88.4,110.5z"/>
					<path class="st1" d="M88.8,111c-0.1,0.1-0.1,0.4-0.4,0.3c-0.2-0.2,0-0.4,0-0.6c-0.1,0.2-0.5,0.5-0.1,0.9l0.1-0.1
						c0.4,0.3,0.9,1.2,0.9,1.3C89.2,112.1,89.1,111.6,88.8,111z"/>
					<path class="st1" d="M91.2,112.4l0.8-0.4l-0.4-0.7l0,0.4C91.1,111.6,91.2,112.1,91.2,112.4z"/>
					<polygon class="st1" points="95.8,114.8 95.7,115.6 96.1,114.5 					"/>
					<polygon class="st1" points="96.9,114.7 96.8,115.4 97.1,115 					"/>
					<path class="st1" d="M158.5,106.1l0.2-0.2C158.6,106,158.5,106,158.5,106.1z"/>
					<path class="st1" d="M156.7,106l0,0.3C156.7,106.2,156.8,106.1,156.7,106z"/>
					<path class="st1" d="M123.7,114.6c0.4,0.6,0.8,1.6,0.7,0.9l-0.1-0.8C124,114.9,123.8,114.8,123.7,114.6z"/>
					<path class="st1" d="M142,110.1c0-0.1-0.1-0.2-0.1-0.2c-0.1,0.3-0.2,0.5-0.2,0.7C141.8,110.4,141.9,110.2,142,110.1z"/>
					<path class="st1" d="M142.3,106.9l0.5,0.5C142.7,107.2,142.5,107.1,142.3,106.9z"/>
					<path class="st1" d="M168.2,105.3l0.3-0.8C168.1,104.5,168.3,104.9,168.2,105.3z"/>
					<path class="st1" d="M108,114.4c0.3,0.3,0.6,0.4,0.8,0.5C108.4,114.4,108.1,113.8,108,114.4z"/>
					<path class="st1" d="M157.8,114.2c0.2-0.1,0.2-0.3,0.2-0.5C157.8,113.8,157.7,114,157.8,114.2z"/>
					<path class="st1" d="M109.7,114.9c-0.1-0.1-0.1-0.1-0.2-0.2c-0.2,0.1-0.5,0.2-0.7,0.2C109.1,115.2,109.4,115.4,109.7,114.9z"/>
					<path class="st1" d="M203.6,105.9C203.7,105.9,203.7,106,203.6,105.9C203.7,105.9,203.7,105.9,203.6,105.9z"/>
					<path class="st1" d="M213.9,113.6c-0.1,0-0.3,0-0.4,0.1C213.6,113.7,213.7,113.7,213.9,113.6z"/>
					<path class="st1" d="M101.3,115C101,115.1,101.2,115.1,101.3,115L101.3,115z"/>
					<path class="st1" d="M100.1,112c0.1-0.1,0.1-0.2,0.1-0.4C100.2,111.8,100.2,111.9,100.1,112z"/>
					<path class="st1" d="M112,110.1C112,110.1,112,110.1,112,110.1C112,110,112,110,112,110.1z"/>
					<path class="st1" d="M100.9,114.7c0.1,0.1,0.2,0.2,0.3,0.2C101.2,114.8,101.1,114.8,100.9,114.7z"/>
					<path class="st1" d="M101,115c-0.1,0-0.1-0.1-0.2-0.1C100.7,115.1,100.7,115.2,101,115z"/>
					<path class="st1" d="M101.6,115c-0.1,0-0.3,0-0.4-0.1c0,0.1,0.1,0.1,0.1,0.1C101.3,115,101.4,115,101.6,115z"/>
					<path class="st1" d="M184.7,107.9C184.7,108,184.7,108,184.7,107.9C184.9,107.7,184.8,107.8,184.7,107.9z"/>
					<path class="st1" d="M129.7,106.7C129.7,106.7,129.7,106.7,129.7,106.7C129.7,106.8,129.7,106.8,129.7,106.7L129.7,106.7z"/>
					<path class="st1" d="M130.5,106.2c-0.4,0.9-0.6,0.8-0.8,0.6l0.3,2.2L130.5,106.2z"/>
					<path class="st1" d="M162.7,105.9l-0.6-0.7c0.7-1.1,1.2-0.7,0.7-1.7c-0.1,2.4-2.3,0.2-2.4,2.6l-0.4-0.5c0.1,0,0.1-0.1,0.2-0.1
						c-0.7-1.1-0.6,1.7-1.5,1.4c-0.3-0.2-0.6-0.5-0.3-0.8l-0.7,0.6c-0.2,0-0.2-0.5,0.1-0.4l-1.1,0.2l0-0.1c-0.2,0.4-0.5,0.9-0.7,1.2
						c-0.3-0.3,0.1-0.3,0.1-0.5l-0.6,0.6c-0.3-0.6,0.3-1.2,0.7-1.1c-0.6-2.4-0.5,0.6-1.8-0.8l0.6-0.3c-0.4-1.3-0.9-0.9-1.5-1.7
						c0.2,0.4,1.4,2.1,0.7,2.7c-0.2-0.2-0.5-0.3-0.8,0.2c0-0.8-0.4-0.6-0.8-0.6l0-1.1c-0.5,0.3-0.4,0.9-0.7,1.4
						c-0.5-0.1-0.7-1-0.8-1.7c-0.9-0.2,0.6,1.4-0.4,1.6c-0.7-0.4-1.2,0-2.1,0.7c-0.5-0.4,0.1-0.7-0.1-1l-0.4,0.9
						c-0.1,0-0.1-0.3-0.1-0.4c-0.4,0.3,0,1.1-0.6,1.4c-0.2,1.2-1.2-1.8-2-0.4c-0.2-0.3,0.1-0.7,0-1.1c-1,0.9-0.9,0.7-1.7,1.9
						l-0.7-0.7c0.5,0.8-0.1,1.8-0.7,2.7c0.2,0.4,0.3,0.8,0.4,0.9l-0.9,0.6c-0.1-0.2,0-0.6,0.1-1c-0.1,0.1-0.1,0.2-0.2,0.3
						c-0.3-0.4-0.2-1.1,0.1-1.7c0.1,0.2,0.2,0.5,0.3,0.7c0.2-0.7,0.4-1.4,0.4-2.1c-0.1,0.1-0.2,0.2-0.3,0.3c0.1-0.2,0.1-0.4,0.1-0.5
						c0-0.1-0.1,0.1-0.3,0.4l-0.2-1.2l-0.1,0.5l-1.2-0.8c-0.9,1.3-1.6,3.1-3,3.6c0.3-0.9,0.1-1.5,0.1-2.6c0.4,1.1,1.1-0.5,1.8-0.3
						c-0.4-0.1-0.3-0.6-0.2-0.8l-1.3,1c0-0.9-0.3-0.7-0.6-1c0.3,1.8-1,1.2-1.5,1.7c0-0.6,0.1-1.2,0.7-1c-0.7-1.3-0.9,2.1-1.6,0.9
						c0.2,0,0.2,0.1,0.3-0.2c-0.4,0.5-1.2,0.1-1-0.4l0.2,0c-1-0.2-3.1,0-3.3,1.5c0-0.2,0.1-1.8,0.2-2.1l-1.8,5
						c0.2-1.3-0.5-4.3,0.4-5c-0.2-0.2-0.5-0.4-1.1,0.1c0.2,0.2,0.4,1.8,0.2,2c-0.6-1.4-0.4-0.8-1.2-2c0.3,0.3,0,2.3-0.4,2.2
						c0.1-0.3,0-2,0.1-2.2l-1,2c0.2-0.4,0-1.7-0.2-2.2c0.1,0.4-0.9,0-1.1,0.2l0.4,0.5c-1.1-0.3-1.1,2.8-2.2,2.7
						c0.1-0.4,0.3-2.5-0.2-2.8c-0.3,1-1.1,4.9-2.1,5.6l-0.2-0.6l-0.7,0.7c0.5-1.5,1.8-4.7,2.5-6c-0.4-0.5-0.1-0.7-0.7-0.6
						c-0.2-0.5,0.3-0.8,0.5-0.9l-1.5-0.4c0.1,1.2-1.1,1.2-1.1,2.2l1.6-1.2c0.1,1.2-0.9,3.3-1.9,3.1c-0.3-0.5,0.2-2.1,0.2-2.5
						c-0.1,0.4-1,0.8-1.1,0.5l0.4-0.6c-0.6-0.4-0.9,1.6-1.6,0.4c-0.2-0.1-0.7-1.5-0.8-0.8c0.4,1.3,0.5,5.5,0.2,6.5
						c-0.1-0.1-1.2-1.3-1.5-1.9c-0.4-1.1,0.6-2.5,0.3-3.4c0,0.3-0.2,0.7-0.3,0.8c-0.3-0.3,0.1-1-0.4-0.9c-0.1,1.2-1.1-0.1-0.3,1
						c-0.5,0.3-0.6-0.2-1.2-0.2c0.2,0.8-0.6,2.6-1.1,3c0-0.3-0.1-0.7-0.1-0.9c-1.1-0.1-1.7-0.7-2.7-0.7c-0.1-0.3-0.6-0.6-0.4-1.2
						c-0.1,0.2-0.3,0.6-0.6,0.6c-0.6-1,0.7-0.2,0.2-1.4c0,0.7-0.8,1-1.3,1.4c0.1,1.1,1,0.2,1.5-0.2c0,1.5-0.8,3-1.8,3.7
						c-0.8,0.4-0.4-1-0.5-0.7c-1.6-0.3-1.3,2.6-2.7,1.5c-0.5-0.9,0-1.9-0.1-2.6c0.7-0.4,1.1,0.6,1.5,0.6l-0.6-0.4
						c0.2-0.3,0.7-0.5,0.9-0.3c-0.4-0.8-2.7-0.2-3.9-0.9c-0.2,0.3-0.6,0.6-0.4,1l0.4-0.1c0.4,0.8-0.7,1.1-0.2,1.4
						c-0.5,0.5-1.1,1.4-1.8,0.9l-0.1-1.1c0,0.3,0.5,0.6,0.7,0.3c-0.3,0.5-1.1-1.5-1.4,0l0.5,0.7c-0.5,0.5-1.2,1.7-1.8,1.3
						c0.3,1.1,0.1-0.1,0.6,1.1c-0.4-1.5,1.7,0.1,1-1.6c0.5,1.4,0.8,0.6,1.4,1.8c0-0.4-0.2-0.7,0.3-0.5c0-0.1,0.1-0.2,0.1-0.3
						c0,0,0,0,0,0c0,0,0,0,0,0c0-0.1,0-0.1,0,0c-0.1-0.2-0.2-0.3-0.3-0.5c0.3-0.8,1.1-0.8,1.4-1.2c0.3,0.2-0.1,0.4,0,0.8l0.4-0.6
						c0,0.8,0.9,1.3,0.1,1.8l0.7,0c0.4,0.4,1,0.6,1.3,0.3c0.3,0.2,0.8-0.9,0.5-0.3l1.1-0.5l0,0.2c1.1,0.1,2.2-1.3,3.4,0.1
						c0.4-0.2,0.7-0.4,1.3-0.2l0.1,0.7c0.5-0.2,1.4,0.7,1.6,0c0.5,1.8,2.2,0.4,3,0.7l0-0.9c0.6,0,1.1-0.2,1.8-0.6l0-0.8
						c0.6-0.6,1.5,0.6,2.5,0.5c-0.1,0.3-0.3,0.2-0.5,0c1.1,1.8,2.4-1.3,3.4,0c0.3-0.3,0.4-0.2,0.6,0c0,0,0,0-0.1,0c0,0,0.1,0,0.1,0
						c0.1,0.1,0.2,0.3,0.4,0.4c-0.1-0.2-0.2-0.3-0.3-0.4c0.2,0,0.5-0.1,0.8-0.3l0.1,0.8c0,0,0,0,0.1,0c0.3,0.3,0.2-0.4,0.1-1
						c0.1-0.1,0.3-0.3,0.4-0.5c0.2,1.4,0.8-0.5,1.1,1c0.2-0.7,1.5-0.5,1.6-2c0,0.2,0.1,0.3-0.1,0.3c0.3,0.2,0.6,0.3,0.9-0.1l0.1,1.1
						l0.7-1.4c0.4,0.7,0.6,1,0.2,1.9c1-1.3,0.8-0.5,1.7-1.7l0,0.7c0.3,0,0.8-1,1-0.4c0.7,1.3,3.5,0.2,5.2,1.4
						c-0.3-2,0.8,0.9,0.9-0.7c0.1,0.5,0.4,0.8,0.1,1.2c0.9-0.5,1.4,0.8,2-0.6c0.1,0.5-0.2,0.7-0.1,1c0.1-0.1,0.3-0.4,0.4-0.1
						c0.1,0.3-0.1,0.4-0.3,0.6c0.9-0.1,1-1.6,1.1-3c0.5,0.7,0.7,0.6,1.1-0.3c0.2,0.5,0.4,0.9-0.1,1.1c0.3,0.1,2,0.7,2-0.4
						c0.1,0.3,0.5,0.1,0.5,0c0.7,0.1,0.8,0.2,1.5,0.1l-0.2-0.2c0.3-1.4,0.6-0.3,1.2-0.5l0,0.1c1.3,1,0.6-0.5,1.9,0.6l-0.1-0.8
						c0.1-1.8,1.2,1.1,1.9,0.4l-0.3-0.5c0.4-0.6,1.2,2.5,1.6,2.7c0.1,0.2-0.1,0.3-0.3,0.4c1.1,1.1,0.1-1.1,1-1.4
						c0.1,0.6-0.2,1.5,0.4,1.6c0.3,0.5,1.6-1.9,2.3-0.8c-0.2-0.5-0.3-0.9,0.1-1.3c0.6-0.2,1.6,1.7,2.1,0.3c0.1,0.1,0.1,0.2,0.1,0.4
						c0.4-0.4,1.4-0.6,1.7-1.4c0.4,2.9,2.8-1.4,2.7,1.3l1.4-0.1l0,0.3c0.9,0.2,1.2-0.5,1.5-1.1c0.2,0.2,0.1,0.4,0,0.6
						c1.3,0.5,1.4,0.4,2.5-0.9l0.1,0.9c0.3-0.5,1.8,1.4,3.1,0.4c0,0.1,0,0.3-0.1,0.4c1.4-1,3.4,2.4,3.9-0.8l0.9-0.8
						c-1.2-0.2,0.2-1.4-0.3-1.9c0.5-0.2,1.2,1,0.6,1.1l-0.1-0.2c-0.2,1.6,1.5,0.6,1.5,1.7c2.4-0.1,4.7,0.8,6.9,0.9l-0.3-1.3l0.8,0.1
						c0.2,0.3,0.3,1-0.3,0.9c0.3,0.7,0.9-0.6,0.9-0.9c1.1,0.5-0.4,1.5-0.1,1.5l0.4-0.1l-0.1-0.2c0.4-0.5,0.4-1.1,1.1-1
						c0.4,0.3,0.2,0.8,0.4,0.8c0,0.1,0.1,0.1,0.3,0l1,0.1l-0.4-1c0.4-0.5,0.9,0.1,0.5-1.1c0.7,1.8,3.6,0.6,4,1.2
						c0.6-0.7,1.2-0.7,1.9-0.6c-0.2-0.2-0.3-1.3,0.3-1.2c-0.2,2.3,1.2,1,1.7,2.7c-0.5-1.1,1.8-0.3,1.1-1.9c0.5,0.2,0,0.9,0.4,1.4
						c1.3-0.9,2.8,0.6,4.3,0.3c0-0.3-0.2-0.8,0.1-1.2l0.8,1.5c0.3-0.2,0.3-1.8,0.8-0.7c-0.1-0.3-0.2-0.7,0-0.7
						c3.1,1.5,6.2-1.2,9.4,1.6c-0.4-0.6-0.1-0.7,0.2-0.7c-0.2-0.1,0-0.8,0-1.2l1.3,1.2c0.2-1.2,1.4-0.1,1.5-1.2l-0.4,0.2
						c0.5-1.3-0.8-2.9-0.7-4.6c-0.6,1.5-1.6-2.2-2.6-0.1c-0.2-0.3,0.2-0.5,0.1-0.9c-0.3,0.7-0.6,0.9-1.1,0.5l0.1-0.2
						c-1.6,0.2-2.3-0.5-4.1-1l0.1,0.8c-0.4-0.1-0.5-0.4-0.6-0.6c-0.4,1.3,1.1,0.1,0.7,1.5c-0.5-1.7-2.7,0-3.1-1.9
						c-0.6,0,0.2,1-0.4,0.9l-0.2-0.5l-0.1,0.7c-0.4-0.1-0.6-0.8-0.6-1.2c0.1,0.1,0.3-0.1,0.4-0.2c-0.5-0.6-1.4,0.2-1.6,0l0.6,0.3
						c-1.6,0.5-3.6-0.2-5.2,0.9l0.1,0.4c-1.2,0.7-1-0.4-2.3-0.1l0-0.1c-0.3,0.4-0.6,0.6-1,0.5c0.3-0.5-0.6-0.9-0.2-1.4
						c-1.3,0.8-0.6,0.6-1.5,2.1l-0.2-0.6c-0.3,0.6-0.3,0.9-1,1.1c0.5-0.6-0.4-1,0.2-1.7c-1.4-1.4-2,1.4-2.7-0.6
						c-0.6,1.8,1.2,1,0.8,1.4c0.3,0.6-0.5,1.3-1,1.2c-0.4,0-0.7-2.3-1.9-2.3c0.1,0,0.1-0.1,0.2-0.1c-0.4-0.5-0.8,0.6-1.3-0.1
						c-0.3,1.1-0.7-0.1-0.7,1.3l1-0.3c-0.6,0.4-1.1,2-2.1,1.2c0.1-0.3,0.4-0.6,0.6-0.9c-0.3-0.4-0.5,0.3-0.8-0.1
						c0.1-1.4,1.2-0.3,1.9-1.4c-0.3-0.6-1.2,1-0.9-0.5c-0.4,1.9-1.1-0.2-1.8,1.2l0.1-0.8c-0.1,0.1-0.4,0.5-0.6,0.5l0.4-1.1
						c-0.6,0.9-1.2-0.8-1.8-0.3c1.2,0,0.3,1,0.8,1.6c-1.5,1.1-0.9-2.2-2.6-1.8c0.2-0.1,0.9,0.5,0.5,0.9c-0.3-0.2-0.7-0.5-0.9-0.9
						c-1.1,0.2,0.2,0.9-0.3,1.4c-0.4-1-0.5,0.4-1,0.7l0-0.8c-1.3-0.5-0.3,1.8-1.5,1.1l0.5-1.2l-0.6,0.3l0.1-1
						c-0.6,0.7-0.9,0.5-1.5,0.3c0.1,0.6-0.1,1.5-0.6,1.6c-0.4-0.5,0.2-0.8-0.6-0.7c0.2-0.5,0.4-1.2,0.7-0.4c0-0.3,0.2-0.5,0.2-0.8
						c-0.4-0.6-1-0.1-1.3-0.1c0.1,0,0.2,0.1,0.3,0.2l-1.2,1.2c-0.2-0.3,0-0.6,0.1-0.8c-0.2,0.1-0.4,0.5-0.7,0.6
						c0.1-0.7,0.1-1.4,0.6-1.7l-1.1,0.8c-0.1-0.3-0.6-0.8-0.4-1.1c-0.6-0.4-1.5,1.3-2.3,0.8c0,0.1-0.1,0.3-0.3,0.4
						c-0.8-0.2-1.4-1-2.3-0.1l-0.5-1.2c-0.7,0.3,0.7,1.6-0.5,2c-0.8,0.4-0.3-1.1-0.6-1.4c-0.4,0.6-1.1,1.9-1.9,0.9
						C162.3,105.8,162.5,106,162.7,105.9z M154,106.4c0.2-0.2,0.5-0.7,0.6-0.2C154.5,107.2,154.3,106.7,154,106.4z M140.8,108.5
						c0.1-0.3,0.3-0.1,0.5,0.2C141.1,108.7,141,108.7,140.8,108.5z M103.8,114.3C103.8,114.3,103.8,114.3,103.8,114.3
						C104.2,114.6,104.1,114.5,103.8,114.3z M103,114c-0.1,0.1-0.1,0.2,0,0.4c0.1-0.2,0.2-0.2,0.4-0.2
						C103.3,113.9,103.2,113.8,103,114z M187.1,113.6l-0.2-0.2C187.3,113.2,187.2,113.4,187.1,113.6z"/>
					<path class="st1" d="M142.3,107.3c0,0.1,0.1,0.3,0.1,0.5C142.4,107.6,142.4,107.4,142.3,107.3z"/>
					<path class="st1" d="M168.2,105.4C168.2,105.4,168.2,105.4,168.2,105.4c0,0,0.1-0.1,0.1-0.1L168.2,105.4z"/>
					<path class="st1" d="M115.1,106.8c0.2,0.1,0.3,0.3,0.3,0.4C115.5,107,115.4,106.9,115.1,106.8z"/>
					<path class="st1" d="M98.9,115.4l0.5-0.2c-0.2,0-0.3-0.1-0.5-0.3C98.9,115.1,99,115.4,98.9,115.4z"/>
					<path class="st1" d="M94.5,110.2c-0.1,0.1-0.2,0-0.2,0.1l0,0.4C94.6,110.7,94.8,110.3,94.5,110.2z"/>
					<path class="st1" d="M98.4,112.6c0-0.7-0.4-0.5-0.7-0.3c0,0,0,0,0.1,0C97.6,113.3,98,112.9,98.4,112.6z"/>
					<path class="st1" d="M97.6,112.3c-0.1,0-0.2,0.1-0.3,0C97.2,112.7,97.4,112.4,97.6,112.3z"/>
					<path class="st1" d="M102,114.4c-0.2-0.2-0.1,0.9-0.2,0.6C101.6,116,102.9,114,102,114.4z"/>
					<polygon class="st1" points="98.1,110.3 98.2,111.1 98.4,110.4 					"/>
					<path class="st1" d="M100.9,110.9l-0.6-0.2c0,0.1-0.1,0.2-0.1,0.3C100.5,111,100.9,111.2,100.9,110.9z"/>
					<path class="st1" d="M100.2,111c-0.2,0-0.4,0-0.5,0.1C99.8,111.1,100,111.1,100.2,111z"/>
					<polygon class="st1" points="98.9,110 99,110.2 99.4,110.2 					"/>
					<path class="st1" d="M106.9,111.1l0.6-0.3c0.1-0.3-0.1-0.5-0.3-0.4C107.1,110.7,106.8,110.8,106.9,111.1z"/>
					<path class="st1" d="M105.1,108.7c0.2,0.2,0.2,0.4,0.3,0.7l0-1.1L105.1,108.7z"/>
					<path class="st1" d="M106.9,108.4c0.1-0.3,0.9-0.9,0.1-0.8C106.9,107.9,106.3,108.2,106.9,108.4z"/>
					<polygon class="st1" points="116.1,109.8 115.9,109.8 116,111.6 					"/>
					<path class="st1" d="M124.2,105.5c-0.7-0.4-0.2,1.1-0.8,0.6c-0.2,0.4,0.5,0.4,0.4,0.8C124.2,106.4,124.4,106.7,124.2,105.5z"/>
					<path class="st1" d="M123.8,106.9c-0.1,0.1-0.1,0.2-0.2,0.3C123.7,107,123.7,107,123.8,106.9z"/>
					<polygon class="st1" points="215.7,114.5 216.1,114.9 215.8,114.3 					"/>
					<path class="st1" d="M216.5,113.2l0.1,1.1l0.3-1C216.8,113.4,216.6,113.5,216.5,113.2z"/>
					<path class="st1" d="M152.7,104.1l0,0.3c0.1,0.3,0.2,0.3,0.4,0.4L152.7,104.1z"/>
					<polygon class="st1" points="159.1,105 158.9,105 159.2,106 					"/>
					<path class="st1" d="M164.4,103.7c-0.2,0-0.5,0.2-0.7,0.1C164.2,103.6,164.4,104.9,164.4,103.7z"/>
				</g>
			</g>
		</g>
	</g>
</g>
<g>
	<g>
		<g>
			<g>
				<g>
					<path class="st1" d="M221.5,158.1c0.2,0.1,0.1-0.7,0.2-0.8C221.3,157.4,221.5,158.3,221.5,158.1z"/>
					<polygon class="st1" points="218.2,159.7 218.2,159.4 217.7,160.2 					"/>
					<path class="st1" d="M215.1,159.7c0.3,1.3,1.1-0.2,1.7,0.2l0.1,0.3l0.2-1C216.4,159.4,215.6,160.1,215.1,159.7z"/>
					<path class="st1" d="M213.4,157c0.1,0.5-0.4,0.4,0.4,0.2c0-0.1,0-0.1-0.1-0.1C213.7,157,213.6,157,213.4,157z"/>
					<path class="st1" d="M213.7,157C214.1,157,213.5,156.6,213.7,157L213.7,157z"/>
					<path class="st1" d="M212.2,157.3l0.4-0.4c-0.1-0.3-0.5-0.4-0.3-0.6C211.9,156.6,212,156.8,212.2,157.3z"/>
					<path class="st1" d="M211.8,158.2l0.2-0.2C212,157.9,212,157.9,211.8,158.2z"/>
					<path class="st1" d="M212.5,157.7l-0.5,0.4c0.1,0.2,0.1,0.6,0.2-0.1C212.2,158.3,212.3,157.9,212.5,157.7z"/>
					<path class="st1" d="M212.8,157.8c0.2,0.3,0.6,0.4,0.1,0.9C213.7,158.6,213.6,157.7,212.8,157.8z"/>
					<path class="st1" d="M214.9,161l0.3,0.4l0.3-0.4C215.4,161.2,214.9,160.6,214.9,161z"/>
					<path class="st1" d="M209.6,156.7c0,0.3,0.1,0.7,0.2,1.1l0.3-0.3C209.9,157.2,209.6,157.1,209.6,156.7z"/>
					<path class="st1" d="M209.8,157.7l-0.5,0.5C209.7,158.2,209.8,158,209.8,157.7z"/>
					<polygon class="st1" points="211.8,159.6 212.5,158.7 211.6,159.6 					"/>
					<polygon class="st1" points="207.8,156.6 208,156 207.6,157 					"/>
					<path class="st1" d="M206.6,156.7c0.2-0.5-0.3-0.9-0.1-1.2c-0.3,0.1-0.6,0.5-0.9,0.9C205.9,156.3,206.2,156.3,206.6,156.7z"/>
					<path class="st1" d="M205.2,157.1c0.1-0.1,0.3-0.3,0.4-0.6C205.5,156.6,205.4,156.8,205.2,157.1z"/>
					<path class="st1" d="M208.5,158c0-0.2-0.1-0.6-0.4-0.8l0.2,0.7C208.3,158,208.4,158,208.5,158z"/>
					<path class="st1" d="M208.3,158.1L208.3,158.1c-0.2,0-0.3-0.1-0.4-0.1C207.9,158,208.1,158,208.3,158.1z"/>
					<path class="st1" d="M208.5,158C208.5,158,208.5,158,208.5,158C208.5,158.1,208.5,158.1,208.5,158z"/>
					<path class="st1" d="M210.5,158.9c-0.3,0.4-0.9,0.9-0.3,1.5C210.4,159.9,210.1,159.6,210.5,158.9z"/>
					<path class="st1" d="M208.8,159l0.5,0.2c0-0.2-0.1-0.5,0-0.7L208.8,159z"/>
					<polygon class="st1" points="208.5,159.2 208.8,159 208.6,158.9 					"/>
					<path class="st1" d="M206.1,157.8c-0.2,0.3-0.5,0.4-0.7,0.4c0.3,0.1,0.6,0.2,0.9,0.2C206.3,158.2,206.4,157.7,206.1,157.8z"/>
					<path class="st1" d="M207.2,158C207.1,158,207.1,158,207.2,158C207.1,158.1,207.2,158.1,207.2,158z"/>
					<path class="st1" d="M202.7,158.2c0,0,0,0.1,0,0.1C202.8,158.3,202.8,158.2,202.7,158.2L202.7,158.2z"/>
					<path class="st1" d="M206.3,158.5c0.2,0.1,0.3,0,0.5-0.3c-0.2,0.1-0.3,0.1-0.5,0.1C206.2,158.5,206.2,158.6,206.3,158.5z"/>
					<path class="st1" d="M204.5,157.4c0.1,0.2,0.2,0.3,0.4,0.4C204.8,157.6,204.5,157.2,204.5,157.4z"/>
					<path class="st1" d="M207,157.8C207.1,157.8,207.1,157.8,207,157.8C207,157.6,207,157.7,207,157.8z"/>
					<path class="st1" d="M207,157.8c-0.1,0.1-0.2,0.3-0.3,0.5c0.1-0.1,0.3-0.1,0.4-0.2C207.1,158,207.1,157.9,207,157.8z"/>
					<path class="st1" d="M201.9,163c0-0.7,0.6-1.3,1.1-0.6c0.5-0.5,0.2-2.8-0.3-4.1c0,0.3,0,0.6-0.5,1c0.2,0.4,1.1,0.9,0.7,1.5
						c-0.7,0.4-0.5-0.2-0.9-0.6c0.3,0.9-0.8,1.3-0.7,2.5l0.6-0.4C202,162.5,201.8,162.8,201.9,163z"/>
					<path class="st1" d="M203.7,158.4l0.2-0.1c-0.2-0.1-0.4-0.4-0.7-0.9c-0.3,0.3-0.4,0.6-0.4,0.8l1,0.1L203.7,158.4z"/>
					<path class="st1" d="M204.8,158.3c-0.2,0.8-0.6,1.1-0.3,1.9c0.6-0.1,0.4-0.6,0.8-1C204.3,159.4,205.5,158.8,204.8,158.3
						c0.2,0,0.4-0.1,0.5-0.1c-0.2-0.1-0.3-0.2-0.5-0.3c0,0,0,0,0,0l0,0c0,0,0,0,0,0c0,0.1,0.1,0.2,0,0.1c0,0,0,0,0,0
						C204.9,158.1,204.9,158.2,204.8,158.3c-0.3-0.2,0-0.2,0-0.3c0,0,0-0.1,0-0.1c0,0,0,0,0,0l-1,0.4
						C204.1,158.4,204.4,158.4,204.8,158.3z"/>
					<path class="st1" d="M209.7,162.1c0-0.1,0-0.1,0-0.2C209.6,162,209.6,162.1,209.7,162.1z"/>
					<path class="st1" d="M209.3,161.6c0.1-0.1,0.1-0.4,0.4-0.3c0.2,0.2,0,0.4,0,0.6c0.1-0.2,0.5-0.5,0.1-0.9l-0.1,0.1
						c-0.4-0.3-0.9-1.2-0.8-1.3C208.9,160.5,209.1,160.9,209.3,161.6z"/>
					<path class="st1" d="M207,160.1l-0.8,0.4l0.4,0.7l0-0.4C207.1,160.9,207,160.4,207,160.1z"/>
					<polygon class="st1" points="202.6,157.8 202.7,157 202.3,158.1 					"/>
					<polygon class="st1" points="201.6,157.9 201.6,157.2 201.3,157.6 					"/>
					<path class="st1" d="M142.4,166.5l-0.2,0.2C142.2,166.6,142.3,166.6,142.4,166.5z"/>
					<path class="st1" d="M144.1,166.5l0-0.3C144,166.4,144,166.5,144.1,166.5z"/>
					<path class="st1" d="M175.8,158c-0.3-0.6-0.7-1.6-0.7-0.9l0.1,0.8C175.5,157.7,175.7,157.8,175.8,158z"/>
					<path class="st1" d="M158.2,162.5c0,0.1,0.1,0.2,0.1,0.2c0.1-0.3,0.2-0.5,0.2-0.7C158.4,162.2,158.3,162.3,158.2,162.5z"/>
					<path class="st1" d="M157.9,165.6l-0.5-0.5C157.6,165.3,157.7,165.5,157.9,165.6z"/>
					<path class="st1" d="M133,167.3l-0.3,0.8C133.1,168.1,132.9,167.7,133,167.3z"/>
					<path class="st1" d="M190.8,158.2c-0.3-0.3-0.5-0.4-0.7-0.5C190.5,158.1,190.7,158.8,190.8,158.2z"/>
					<path class="st1" d="M143,158.4c-0.1,0.1-0.2,0.3-0.2,0.5C143,158.8,143.1,158.6,143,158.4z"/>
					<path class="st1" d="M189.2,157.7c0.1,0.1,0.1,0.1,0.2,0.2c0.2-0.1,0.4-0.2,0.7-0.2C189.8,157.4,189.5,157.2,189.2,157.7z"/>
					<path class="st1" d="M98.9,166.7C98.9,166.6,98.9,166.6,98.9,166.7C98.9,166.7,98.9,166.7,98.9,166.7z"/>
					<path class="st1" d="M89,159c0.1,0,0.3,0,0.4-0.1C89.4,158.9,89.2,158.9,89,159z"/>
					<path class="st1" d="M197.4,157.6C197.6,157.5,197.4,157.5,197.4,157.6L197.4,157.6z"/>
					<path class="st1" d="M198.4,160.6c0,0.1-0.1,0.2-0.1,0.4C198.4,160.7,198.4,160.6,198.4,160.6z"/>
					<path class="st1" d="M187,162.4C187,162.4,187,162.4,187,162.4C187.1,162.6,187.1,162.6,187,162.4z"/>
					<path class="st1" d="M197.7,157.9c-0.1-0.1-0.2-0.2-0.3-0.2C197.5,157.7,197.5,157.8,197.7,157.9z"/>
					<path class="st1" d="M197.7,157.5c0.1,0,0.1,0.1,0.2,0.1C197.9,157.5,197.9,157.4,197.7,157.5z"/>
					<path class="st1" d="M197.1,157.6c0.1,0,0.2,0,0.4,0.1c0-0.1-0.1-0.1-0.1-0.1C197.3,157.6,197.2,157.6,197.1,157.6z"/>
					<path class="st1" d="M117.2,164.6C117.2,164.6,117.1,164.6,117.2,164.6C116.9,164.9,117,164.8,117.2,164.6z"/>
					<path class="st1" d="M170,165.9C170,165.8,170,165.8,170,165.9C170,165.8,170,165.8,170,165.9L170,165.9z"/>
					<path class="st1" d="M169.2,166.4c0.3-0.9,0.5-0.8,0.8-0.6l-0.3-2.2L169.2,166.4z"/>
					<path class="st1" d="M138.2,166.7l0.6,0.7c-0.7,1.1-1.2,0.7-0.6,1.7c0.1-2.4,2.2-0.2,2.3-2.6l0.4,0.5c-0.1,0-0.1,0.1-0.2,0.1
						c0.7,1.1,0.5-1.7,1.5-1.4c0.3,0.2,0.5,0.5,0.3,0.8l0.7-0.6c0.2,0,0.2,0.5-0.1,0.4l1.1-0.2l0,0.1c0.2-0.4,0.5-0.9,0.7-1.2
						c0.3,0.3-0.1,0.3-0.1,0.5l0.6-0.6c0.2,0.6-0.3,1.2-0.7,1.1c0.6,2.4,0.5-0.6,1.7,0.8l-0.6,0.3c0.4,1.3,0.8,0.9,1.5,1.7
						c-0.2-0.4-1.3-2.1-0.6-2.7c0.2,0.2,0.4,0.3,0.8-0.2c0,0.8,0.4,0.6,0.8,0.6l0,1.1c0.5-0.3,0.4-0.9,0.7-1.4
						c0.5,0.1,0.6,1,0.8,1.7c0.8,0.2-0.6-1.4,0.4-1.6c0.7,0.4,1.2,0,2-0.7c0.5,0.4-0.1,0.7,0.1,1l0.4-0.9c0.1,0,0.1,0.3,0.1,0.4
						c0.4-0.3,0-1.1,0.6-1.4c0.2-1.2,1.2,1.8,1.9,0.4c0.2,0.3-0.1,0.7,0,1.1c1-0.9,0.8-0.7,1.6-1.9l0.7,0.7
						c-0.5-0.8,0.1-1.8,0.7-2.7c-0.2-0.4-0.3-0.8-0.4-0.9l0.9-0.6c0.1,0.2,0,0.6-0.1,1c0.1-0.1,0.1-0.2,0.2-0.3
						c0.3,0.4,0.2,1.1-0.1,1.7c-0.1-0.2-0.2-0.5-0.3-0.7c-0.2,0.7-0.4,1.4-0.4,2.1c0.1-0.1,0.2-0.2,0.3-0.3
						c-0.1,0.2-0.1,0.4-0.1,0.5c0,0.1,0.1-0.1,0.3-0.4l0.2,1.2l0.1-0.5l1.2,0.8c0.8-1.3,1.6-3.1,2.9-3.6c-0.3,0.9-0.1,1.5-0.1,2.6
						c-0.4-1.1-1,0.5-1.7,0.3c0.4,0.1,0.3,0.6,0.2,0.8l1.2-1c0,0.9,0.3,0.7,0.6,1c-0.2-1.8,0.9-1.2,1.4-1.7c0,0.6-0.1,1.2-0.7,1
						c0.7,1.3,0.9-2.1,1.5-0.9c-0.1,0-0.2-0.1-0.3,0.2c0.3-0.5,1.2-0.1,1,0.4l-0.1,0c1,0.2,3,0,3.2-1.5c0,0.2-0.1,1.8-0.2,2.1l1.8-5
						c-0.2,1.3,0.4,4.3-0.4,5c0.2,0.2,0.5,0.4,1-0.1c-0.2-0.2-0.4-1.8-0.2-2c0.6,1.4,0.4,0.8,1.2,2c-0.2-0.3,0-2.3,0.4-2.2
						c-0.1,0.3,0,2-0.1,2.2l0.9-2c-0.2,0.4,0,1.7,0.2,2.2c-0.1-0.4,0.8,0,1.1-0.2l-0.4-0.5c1.1,0.3,1.1-2.8,2.1-2.7
						c-0.1,0.4-0.3,2.5,0.2,2.8c0.2-1,1.1-4.9,2-5.6l0.2,0.6l0.7-0.7c-0.4,1.5-1.7,4.7-2.4,6c0.4,0.5,0.1,0.7,0.7,0.6
						c0.2,0.5-0.3,0.8-0.5,0.9l1.4,0.4c-0.1-1.2,1.1-1.2,1-2.2l-1.5,1.2c-0.1-1.2,0.9-3.3,1.9-3.1c0.3,0.5-0.2,2.1-0.2,2.5
						c0.1-0.4,0.9-0.8,1-0.5l-0.4,0.6c0.6,0.4,0.9-1.6,1.6-0.4c0.2,0.1,0.7,1.5,0.7,0.8c-0.4-1.3-0.4-5.5-0.2-6.5
						c0.1,0.1,1.2,1.3,1.5,1.9c0.4,1.1-0.6,2.5-0.2,3.4c0-0.3,0.2-0.7,0.3-0.8c0.2,0.3-0.1,1,0.4,0.9c0.1-1.2,1.1,0.1,0.2-1
						c0.5-0.3,0.5,0.2,1.1,0.2c-0.2-0.8,0.5-2.6,1-3c0,0.3,0.1,0.7,0.1,0.9c1,0.1,1.6,0.7,2.6,0.7c0.1,0.3,0.6,0.6,0.4,1.2
						c0.1-0.2,0.3-0.6,0.6-0.6c0.6,1-0.7,0.2-0.2,1.4c0-0.7,0.8-1,1.2-1.4c-0.1-1.1-1-0.2-1.4,0.2c0-1.5,0.7-3,1.8-3.7
						c0.8-0.4,0.4,1,0.5,0.7c1.5,0.3,1.3-2.6,2.6-1.5c0.5,0.9,0,1.9,0.1,2.6c-0.7,0.4-1-0.6-1.5-0.6l0.5,0.4
						c-0.2,0.3-0.6,0.5-0.9,0.3c0.4,0.8,2.6,0.2,3.7,0.9c0.2-0.3,0.6-0.6,0.4-1l-0.4,0.1c-0.3-0.8,0.7-1.1,0.2-1.4
						c0.5-0.5,1.1-1.4,1.8-0.9l0.1,1.1c0-0.3-0.5-0.6-0.7-0.3c0.3-0.5,1.1,1.5,1.4,0l-0.5-0.7c0.5-0.5,1.1-1.7,1.7-1.3
						c-0.3-1.1-0.1,0.1-0.6-1.1c0.4,1.5-1.6-0.1-1,1.6c-0.5-1.4-0.8-0.6-1.4-1.8c0,0.4,0.2,0.7-0.3,0.5c0,0.1-0.1,0.2-0.1,0.3
						c0,0,0,0,0,0c0,0,0,0,0,0c0,0.1,0,0.1,0,0c0.1,0.2,0.2,0.3,0.3,0.5c-0.3,0.8-1.1,0.8-1.4,1.2c-0.3-0.2,0.1-0.4,0-0.8l-0.4,0.6
						c0-0.8-0.8-1.3-0.1-1.8l-0.7,0c-0.4-0.4-0.9-0.6-1.2-0.3c-0.3-0.2-0.8,0.9-0.5,0.3l-1,0.5l0-0.2c-1-0.1-2.1,1.3-3.2-0.1
						c-0.3,0.2-0.7,0.4-1.3,0.2l-0.1-0.7c-0.4,0.2-1.3-0.7-1.5,0c-0.5-1.8-2.1-0.4-2.9-0.7l0,0.9c-0.5,0-1,0.2-1.7,0.6l0,0.8
						c-0.6,0.6-1.5-0.6-2.4-0.5c0.1-0.3,0.3-0.2,0.4,0c-1.1-1.8-2.3,1.3-3.2,0c-0.2,0.3-0.4,0.2-0.6,0c0,0,0,0,0.1,0
						c0,0-0.1,0-0.1,0c-0.1-0.1-0.2-0.3-0.3-0.4c0.1,0.2,0.2,0.3,0.3,0.4c-0.2,0-0.5,0.1-0.7,0.3l-0.1-0.8c0,0,0,0-0.1,0
						c-0.3-0.3-0.2,0.4-0.1,1c-0.1,0.1-0.3,0.3-0.4,0.5c-0.2-1.4-0.7,0.5-1-1c-0.2,0.7-1.4,0.5-1.5,2c0-0.2-0.1-0.3,0.1-0.3
						c-0.3-0.2-0.6-0.3-0.9,0.1l-0.1-1.1l-0.7,1.4c-0.4-0.7-0.6-1-0.2-1.9c-1,1.3-0.8,0.5-1.6,1.7l0-0.7c-0.3,0-0.8,1-1,0.4
						c-0.7-1.3-3.3-0.2-5-1.4c0.3,2-0.8-0.9-0.9,0.7c-0.1-0.5-0.3-0.8-0.1-1.2c-0.9,0.5-1.3-0.8-1.9,0.6c-0.1-0.5,0.2-0.7,0.1-1
						c-0.1,0.1-0.3,0.4-0.4,0.1c-0.1-0.3,0.1-0.4,0.3-0.6c-0.9,0.1-1,1.6-1.1,3c-0.5-0.7-0.7-0.6-1,0.3c-0.2-0.5-0.4-0.9,0.1-1.1
						c-0.3-0.1-1.9-0.7-1.9,0.4c-0.1-0.3-0.4-0.1-0.5,0c-0.7-0.1-0.8-0.2-1.5-0.1l0.2,0.2c-0.3,1.4-0.6,0.3-1.1,0.5l0-0.1
						c-1.3-1-0.6,0.5-1.8-0.6l0.1,0.8c-0.1,1.8-1.1-1.1-1.8-0.4l0.3,0.5c-0.4,0.6-1.1-2.5-1.5-2.7c-0.1-0.2,0.1-0.3,0.3-0.4
						c-1.1-1.1-0.1,1.1-0.9,1.4c-0.1-0.6,0.2-1.5-0.3-1.6c-0.3-0.5-1.5,1.9-2.2,0.8c0.2,0.5,0.3,0.9,0,1.3c-0.6,0.2-1.5-1.7-2-0.3
						c-0.1-0.1-0.1-0.2-0.1-0.4c-0.4,0.4-1.4,0.6-1.6,1.4c-0.4-2.9-2.6,1.4-2.6-1.3l-1.3,0.1l0-0.3c-0.8-0.2-1.1,0.5-1.4,1.1
						c-0.2-0.2-0.1-0.4,0-0.6c-1.2-0.5-1.3-0.4-2.4,0.9l-0.1-0.9c-0.3,0.5-1.8-1.4-3-0.4c0-0.1,0-0.3,0.1-0.4
						c-1.3,1-3.2-2.4-3.7,0.8l-0.9,0.8c1.2,0.2-0.2,1.4,0.3,1.9c-0.5,0.2-1.2-1-0.6-1.1l0.1,0.2c0.2-1.6-1.4-0.6-1.4-1.7
						c-2.3,0.1-4.5-0.8-6.6-0.9l0.2,1.3l-0.7-0.1c-0.2-0.3-0.3-1,0.3-0.9c-0.3-0.7-0.9,0.6-0.9,0.9c-1-0.5,0.4-1.5,0.1-1.5l-0.4,0.1
						l0.1,0.2c-0.3,0.5-0.4,1.1-1,1c-0.4-0.3-0.2-0.8-0.4-0.8c0-0.1-0.1-0.1-0.2,0l-0.9-0.1l0.4,1c-0.4,0.5-0.9-0.1-0.4,1.1
						c-0.6-1.8-3.5-0.6-3.9-1.2c-0.6,0.7-1.2,0.7-1.9,0.6c0.2,0.2,0.3,1.3-0.3,1.2c0.2-2.3-1.1-1-1.6-2.7c0.4,1.1-1.7,0.3-1,1.9
						c-0.5-0.2,0-0.9-0.4-1.4c-1.2,0.9-2.7-0.6-4.2-0.3c0,0.3,0.2,0.8-0.1,1.2l-0.8-1.5c-0.3,0.2-0.3,1.8-0.8,0.7
						c0.1,0.3,0.2,0.7,0,0.7c-2.9-1.5-6,1.2-9-1.6c0.4,0.6,0.1,0.7-0.2,0.7c0.2,0.1,0,0.8,0,1.2l-1.3-1.2c-0.2,1.2-1.3,0.1-1.5,1.2
						l0.4-0.2c-0.5,1.3,0.7,2.9,0.7,4.6c0.6-1.5,1.6,2.2,2.5,0.1c0.2,0.3-0.2,0.5-0.1,0.9c0.2-0.7,0.5-0.9,1.1-0.5l-0.1,0.2
						c1.5-0.2,2.2,0.5,3.9,1l-0.1-0.8c0.4,0.1,0.4,0.4,0.6,0.6c0.4-1.3-1-0.1-0.7-1.5c0.5,1.7,2.6,0,3,1.9c0.6,0-0.2-1,0.4-0.9
						l0.2,0.5l0.1-0.7c0.4,0.1,0.6,0.8,0.6,1.2c-0.1-0.1-0.3,0.1-0.4,0.2c0.5,0.6,1.4-0.2,1.5,0l-0.6-0.3c1.6-0.5,3.5,0.2,5-0.9
						l-0.1-0.4c1.2-0.7,0.9,0.4,2.2,0.1l0,0.1c0.3-0.4,0.6-0.6,0.9-0.5c-0.3,0.5,0.6,0.9,0.2,1.4c1.2-0.8,0.6-0.6,1.4-2.1l0.2,0.6
						c0.3-0.6,0.3-0.9,0.9-1.1c-0.5,0.6,0.4,1-0.2,1.7c1.3,1.4,2-1.4,2.6,0.6c0.6-1.8-1.1-1-0.8-1.4c-0.3-0.6,0.5-1.3,0.9-1.2
						c0.4,0,0.7,2.3,1.8,2.3c-0.1,0-0.1,0.1-0.2,0.1c0.4,0.5,0.8-0.6,1.3,0.1c0.3-1.1,0.6,0.1,0.7-1.3l-1,0.3c0.6-0.4,1.1-2,2-1.2
						c-0.1,0.3-0.3,0.6-0.5,0.9c0.3,0.4,0.5-0.3,0.8,0.1c-0.1,1.4-1.2,0.3-1.8,1.4c0.3,0.6,1.1-1,0.8,0.5c0.4-1.9,1,0.2,1.8-1.2
						l0,0.8c0.1-0.1,0.4-0.5,0.6-0.5l-0.4,1.1c0.6-0.9,1.1,0.8,1.7,0.3c-1.2,0-0.3-1-0.8-1.6c1.4-1.1,0.8,2.2,2.5,1.8
						c-0.2,0.1-0.8-0.5-0.5-0.9c0.3,0.2,0.7,0.5,0.9,0.9c1.1-0.2-0.2-0.9,0.3-1.4c0.4,1,0.5-0.4,1-0.7l0,0.8
						c1.2,0.5,0.3-1.8,1.4-1.1l-0.5,1.2l0.6-0.3l-0.1,1c0.6-0.7,0.8-0.5,1.4-0.3c-0.1-0.6,0.1-1.5,0.6-1.6c0.4,0.5-0.2,0.8,0.6,0.7
						c-0.2,0.5-0.4,1.2-0.7,0.4c0,0.3-0.2,0.5-0.2,0.8c0.4,0.6,1,0.1,1.3,0.1c-0.1,0-0.2-0.1-0.3-0.2l1.1-1.2c0.2,0.3,0,0.6-0.1,0.8
						c0.2-0.1,0.4-0.5,0.7-0.6c-0.1,0.7-0.1,1.4-0.5,1.7l1.1-0.8c0.1,0.3,0.5,0.8,0.4,1.1c0.6,0.4,1.4-1.3,2.2-0.8
						c0-0.1,0.1-0.3,0.3-0.4c0.7,0.2,1.4,1,2.2,0.1l0.5,1.2c0.7-0.3-0.7-1.6,0.5-2c0.8-0.4,0.3,1.1,0.6,1.4c0.4-0.6,1.1-1.9,1.8-0.9
						C138.7,166.8,138.5,166.6,138.2,166.7z M146.6,166.2c-0.2,0.2-0.5,0.7-0.6,0.2C146.2,165.4,146.4,165.9,146.6,166.2z
						 M159.4,164.1c-0.1,0.3-0.3,0.1-0.5-0.2C159,163.9,159.2,163.9,159.4,164.1z M194.9,158.2C194.9,158.3,194.9,158.3,194.9,158.2
						C194.5,158,194.7,158.1,194.9,158.2z M195.7,158.6c0.1-0.1,0.1-0.2,0-0.4c-0.1,0.2-0.2,0.2-0.4,0.2
						C195.4,158.6,195.5,158.8,195.7,158.6z M114.8,158.9l0.1,0.2C114.6,159.4,114.7,159.2,114.8,158.9z"/>
					<path class="st1" d="M157.9,165.3c0-0.1-0.1-0.3-0.1-0.5C157.8,165,157.8,165.1,157.9,165.3z"/>
					<path class="st1" d="M133,167.1C133,167.1,133,167.1,133,167.1c0,0,0,0.1-0.1,0.1L133,167.1z"/>
					<path class="st1" d="M184,165.8c-0.2-0.1-0.2-0.3-0.3-0.4C183.7,165.5,183.8,165.7,184,165.8z"/>
					<path class="st1" d="M199.7,157.2l-0.5,0.2c0.2,0,0.3,0.1,0.4,0.3C199.6,157.5,199.5,157.2,199.7,157.2z"/>
					<path class="st1" d="M203.9,162.4c0.1-0.1,0.1,0,0.2-0.1l0-0.4C203.8,161.9,203.5,162.2,203.9,162.4z"/>
					<path class="st1" d="M200.1,160c0,0.7,0.3,0.5,0.7,0.3c0,0,0,0-0.1,0C200.8,159.3,200.5,159.7,200.1,160z"/>
					<path class="st1" d="M200.9,160.3c0.1,0,0.2-0.1,0.3,0C201.2,159.9,201.1,160.2,200.9,160.3z"/>
					<path class="st1" d="M196.6,158.1c0.2,0.2,0.1-0.9,0.2-0.6C197,156.6,195.8,158.6,196.6,158.1z"/>
					<polygon class="st1" points="200.4,162.3 200.3,161.4 200.1,162.2 					"/>
					<path class="st1" d="M197.7,161.7l0.5,0.2c0-0.1,0.1-0.2,0.1-0.3C198.1,161.6,197.7,161.4,197.7,161.7z"/>
					<path class="st1" d="M198.4,161.6c0.2,0,0.3,0,0.4-0.1C198.7,161.5,198.5,161.5,198.4,161.6z"/>
					<polygon class="st1" points="199.7,162.6 199.5,162.4 199.1,162.3 					"/>
					<path class="st1" d="M191.9,161.5l-0.6,0.3c-0.1,0.3,0.1,0.5,0.3,0.4C191.8,161.9,192,161.8,191.9,161.5z"/>
					<path class="st1" d="M193.7,163.9c-0.2-0.2-0.2-0.4-0.3-0.7l0,1.1L193.7,163.9z"/>
					<path class="st1" d="M192,164.2c-0.1,0.3-0.9,0.9-0.1,0.8C191.9,164.7,192.5,164.4,192,164.2z"/>
					<polygon class="st1" points="183.1,162.8 183.3,162.8 183.2,161 					"/>
					<path class="st1" d="M175.3,167.1c0.7,0.4,0.2-1.1,0.8-0.6c0.2-0.4-0.5-0.4-0.3-0.8C175.3,166.1,175.1,165.9,175.3,167.1z"/>
					<path class="st1" d="M175.7,165.7c0.1-0.1,0.1-0.2,0.2-0.3C175.8,165.5,175.8,165.6,175.7,165.7z"/>
					<polygon class="st1" points="87.4,158 86.9,157.7 87.2,158.3 					"/>
					<path class="st1" d="M86.5,159.4l-0.1-1.1l-0.3,1C86.2,159.2,86.4,159.1,86.5,159.4z"/>
					<path class="st1" d="M147.9,168.4l0-0.3c-0.1-0.3-0.2-0.3-0.4-0.4L147.9,168.4z"/>
					<polygon class="st1" points="141.8,167.6 141.9,167.6 141.7,166.6 					"/>
					<path class="st1" d="M136.7,168.9c0.2,0,0.5-0.2,0.7-0.1C136.9,169,136.6,167.6,136.7,168.9z"/>
				</g>
			</g>
		</g>
	</g>
</g>
</svg>
